<?xml version="1.0" encoding="UTF-8"?>
<svg version="1.1" xmlns="http://www.w3.org/2000/svg" width="3001" height="3000">
<path d="M0 0 C5.8502075 0.01708981 11.70000493 0.00689074 17.55019855 -0.01032925 C120.6829232 -0.2664064 224.2303171 11.07419554 353.02050781 39.39111328 C354.46139771 39.73175812 354.46139771 39.73175812 355.93139648 40.07928467 C454.8081254 63.53512862 551.08254349 97.09958176 643.02050781 140.39111328 C643.98037598 140.84212402 644.94024414 141.29313477 645.92919922 141.7578125 C673.43092936 154.71775053 700.93732227 168.03356166 727.44042969 182.94287109 C730.26738063 184.52968724 733.10432674 186.09768831 735.94238281 187.66455078 C768.39140259 205.63286406 800.08691289 224.92801028 831.02050781 245.39111328 C832.08035889 246.09010742 832.08035889 246.09010742 833.16162109 246.80322266 C862.79315237 266.35544844 891.54565381 287.03688168 919.72021484 308.62988281 C921.70139958 310.14678651 923.68597855 311.65901908 925.67285156 313.16845703 C932.21590836 318.15864992 938.62786801 323.28662011 944.99682617 328.49633789 C949.41647173 332.10708986 953.88706448 335.64217998 958.39550781 339.14111328 C963.32001129 342.97318996 967.99978796 346.98498471 972.59472656 351.21142578 C975.17178355 353.5270422 977.82633173 355.71316394 980.52050781 357.89111328 C985.0414831 361.55125406 989.38740173 365.35893168 993.68847656 369.27392578 C995.7787467 371.17162497 997.89036896 373.03844743 1000.02050781 374.89111328 C1003.87161359 378.24729784 1007.66985596 381.65985521 1011.46191406 385.08251953 C1013.11303114 386.57230609 1014.76650925 388.05948205 1016.42285156 389.54345703 C1035.3544074 406.51128585 1035.3544074 406.51128585 1043.72753906 415.16064453 C1045.64901175 417.02974317 1047.60553537 418.76919566 1049.63818359 420.51318359 C1054.08265094 424.39186535 1058.26656767 428.49272156 1062.43066406 432.66845703 C1063.58736855 433.82372643 1063.58736855 433.82372643 1064.7674408 435.00233459 C1066.38630934 436.62052701 1068.00393332 438.2399654 1069.62036133 439.8605957 C1072.07619499 442.3217856 1074.53732146 444.77759137 1076.99902344 447.23291016 C1078.58072435 448.81527195 1080.16211498 450.39794395 1081.74316406 451.98095703 C1082.46939468 452.70516342 1083.19562531 453.42936981 1083.94386292 454.17552185 C1087.96490192 458.21481405 1091.81479845 462.34613677 1095.52391052 466.67433167 C1097.57806037 469.0306948 1099.78157267 471.21109749 1102.02050781 473.39111328 C1105.50140843 476.83548271 1108.795544 480.34436223 1111.97753906 484.06298828 C1114.75996953 487.23378858 1117.64157299 490.30804464 1120.52050781 493.39111328 C1125.1114642 498.31717598 1129.64301438 503.27324041 1134.02050781 508.39111328 C1134.89673102 509.41331631 1135.77304127 510.43544474 1136.64941406 511.45751953 C1138.16557748 513.22604038 1139.68101201 514.99516169 1141.19433594 516.76611328 C1143.87859686 519.90494003 1146.57489814 523.0318573 1149.29785156 526.13720703 C1155.05683541 532.7119328 1160.65243557 539.35566942 1166.00170898 546.26879883 C1169.03206377 550.17360075 1172.17107465 553.95811821 1175.39550781 557.70361328 C1180.73162517 563.92638227 1185.69065104 570.40807618 1190.63769531 576.94189453 C1193.45906089 580.66632633 1196.32505005 584.35336833 1199.20703125 588.03100586 C1206.42523506 597.24498465 1213.42997991 606.60066121 1220.32226562 616.06054688 C1221.96534742 618.31541444 1223.61389502 620.56620696 1225.26269531 622.81689453 C1253.26556771 661.17869209 1279.12136372 701.3597426 1303.02050781 742.39111328 C1303.61331543 743.40399414 1304.20612305 744.416875 1304.81689453 745.46044922 C1317.59625667 767.30740927 1329.56694931 789.5473534 1341.21972656 812.01220703 C1342.99487754 815.43158019 1344.78671978 818.84082266 1346.60253906 822.23876953 C1353.12279324 834.44861537 1359.16896248 846.84775498 1365.02050781 859.39111328 C1365.30732422 860.00492859 1365.59414062 860.6187439 1365.88964844 861.25115967 C1389.04392695 910.8306336 1409.6021674 961.40871224 1427.27166748 1013.20251465 C1428.0089082 1015.35721165 1428.75217796 1017.50972778 1429.49755859 1019.66162109 C1460.39222808 1108.94904893 1481.4196221 1201.73009423 1507.58300781 1460.39111328 C1507.60385437 1461.23528809 1507.62470093 1462.07946289 1507.6461792 1462.94921875 C1509.93266682 1557.79545919 1503.32043476 1652.64337973 1427.76544189 1986.22338867 C1427.01494391 1988.40730399 1426.27053377 1990.59320721 1425.52783203 1992.77978516 C1413.41503724 2028.40526203 1399.90557393 2063.58952229 1384.55615234 2097.95068359 C1382.97844838 2101.48534246 1381.41850964 2105.02748709 1379.86035156 2108.57080078 C1372.75229428 2124.66024773 1365.21042706 2140.5060996 1357.48976135 2156.30732727 C1355.17181903 2161.05947222 1352.92694271 2165.84221021 1350.70800781 2170.64111328 C1346.93609212 2178.73578632 1342.78110056 2186.61196808 1338.56933594 2194.48486328 C1337.13478519 2197.17668107 1335.71085118 2199.87389436 1334.29058838 2202.57327271 C1326.09383505 2218.14710403 1317.60567091 2233.4817356 1308.63916016 2248.62988281 C1306.56620123 2252.16610687 1304.55270507 2255.73410232 1302.54101562 2259.30541992 C1295.97108459 2270.95681636 1288.94368974 2282.29316478 1281.78857422 2293.59277344 C1280.19347365 2296.11735818 1278.60990362 2298.64858682 1277.03222656 2301.18408203 C1264.91949187 2320.60324164 1252.12107882 2339.62596392 1239.02050781 2358.39111328 C1238.56047363 2359.05159668 1238.10043945 2359.71208008 1237.62646484 2360.39257812 C1225.13491255 2378.30093323 1212.06245104 2395.7621382 1198.78173828 2413.09082031 C1197.26483458 2415.07200504 1195.75260202 2417.05658402 1194.24316406 2419.04345703 C1189.25011901 2425.59025354 1184.11881687 2432.00552418 1178.90649414 2438.37841797 C1175.38317731 2442.69141699 1171.93289234 2447.05261149 1168.52050781 2451.45361328 C1163.1410276 2458.36349672 1157.41586329 2464.94756881 1151.64355469 2471.52978516 C1149.01435106 2474.54498499 1146.4265987 2477.59529795 1143.83300781 2480.64111328 C1139.3989689 2485.83519027 1134.8630659 2490.91607374 1130.24707031 2495.94970703 C1128.32917574 2498.05266161 1126.44674736 2500.17780484 1124.58300781 2502.32861328 C1120.30919816 2507.24299394 1115.88458404 2512.018755 1111.47314453 2516.80908203 C1110.02696407 2518.38408193 1108.58723409 2519.96473038 1107.14941406 2521.54736328 C1102.53420494 2526.62091041 1097.86511229 2531.60226083 1092.96986389 2536.40931702 C1091.16085164 2538.24843392 1089.47700095 2540.13784952 1087.8034668 2542.09985352 C1083.96125369 2546.51871966 1079.88823379 2550.6677534 1075.74316406 2554.80126953 C1074.97298447 2555.57240585 1074.20280487 2556.34354218 1073.4092865 2557.13804626 C1071.79109408 2558.75691481 1070.17165569 2560.37453879 1068.55102539 2561.9909668 C1066.08983549 2564.44680046 1063.63402973 2566.90792693 1061.17871094 2569.36962891 C1059.59634915 2570.95132981 1058.01367714 2572.53272045 1056.43066406 2574.11376953 C1055.34435448 2575.20311546 1055.34435448 2575.20311546 1054.23609924 2576.31446838 C1050.20385467 2580.32849161 1046.08053049 2584.17193315 1041.75865173 2587.87315369 C1039.21430389 2590.09518903 1036.88076013 2592.47398741 1034.52050781 2594.89111328 C1030.90978208 2598.55072459 1027.22369608 2602.04550515 1023.31347656 2605.38330078 C1020.15213359 2608.15149548 1017.09138791 2611.02331986 1014.02050781 2613.89111328 C1009.0944344 2618.48212349 1004.13773624 2623.0128348 999.02050781 2627.39111328 C997.98656103 2628.27902628 996.95271649 2629.16705834 995.91894531 2630.05517578 C993.52131041 2632.11363472 991.12122868 2634.16919904 988.71972656 2636.22314453 C986.34263828 2638.25682723 983.9701416 2640.29561548 981.60253906 2642.34033203 C972.52682984 2650.16963687 963.29989581 2657.80484369 954.02050781 2665.39111328 C953.32602539 2665.96039551 952.63154297 2666.52967773 951.91601562 2667.11621094 C943.69538198 2673.853262 935.41833066 2680.48871384 926.95410156 2686.91845703 C924.69017721 2688.64269841 922.43354336 2690.37628922 920.17675781 2692.10986328 C909.64047051 2700.18989815 899.00633648 2708.10221617 888.20458984 2715.82324219 C886.01974475 2717.39166105 883.8449351 2718.97304662 881.67285156 2720.55908203 C869.96439946 2729.09801549 858.03742775 2737.29316158 846.02050781 2745.39111328 C844.95074707 2746.11258545 844.95074707 2746.11258545 843.859375 2746.84863281 C833.99591191 2753.4902267 824.03147368 2759.97439287 814.02050781 2766.39111328 C813.29412109 2766.85743164 812.56773437 2767.32375 811.81933594 2767.80419922 C789.63448088 2782.01850608 766.92312133 2795.37106437 744.02050781 2808.39111328 C742.9513916 2808.99922852 741.88227539 2809.60734375 740.78076172 2810.23388672 C722.83631617 2820.40519969 704.60603119 2829.9531525 686.21173096 2839.27923584 C683.99827127 2840.40239662 681.78635344 2841.52854683 679.57470703 2842.65527344 C658.30802522 2853.48014873 636.86367754 2863.78086135 615.02050781 2873.39111328 C614.32566284 2873.69728577 613.63081787 2874.00345825 612.91491699 2874.31890869 C523.98142425 2913.46489153 431.02897489 2944.56862233 317.02050781 2969.39111328 C315.64330566 2969.67764771 315.64330566 2969.67764771 314.23828125 2969.9699707 C245.95686188 2984.15469339 176.90782793 2993.41635663 107.33300781 2998.07861328 C105.9709874 2998.1700209 105.9709874 2998.1700209 104.58145142 2998.26327515 C82.45680707 2999.72947392 60.38204843 3000.55617235 38.20800781 3000.59423828 C37.06210175 3000.59706566 35.91619568 3000.59989304 34.73556519 3000.60280609 C28.64206732 3000.61767763 22.54859228 3000.62697648 16.45507812 3000.63134766 C11.55591165 3000.63568022 6.65692649 3000.64938448 1.7578125 3000.67236328 C-42.92293942 3000.87736234 -87.48919945 2999.37998551 -131.97949219 2995.07861328 C-133.63857605 2994.92279282 -133.63857605 2994.92279282 -135.33117676 2994.76382446 C-158.95672738 2992.54012344 -182.48595875 2989.72515008 -205.97949219 2986.39111328 C-206.95631958 2986.25358643 -207.93314697 2986.11605957 -208.9395752 2985.97436523 C-261.2538304 2978.58685836 -313.28702245 2968.38234692 -364.41784668 2955.05786133 C-366.99624751 2954.38675219 -369.57608062 2953.72140312 -372.15625 2953.05712891 C-455.82786056 2931.46319863 -537.45855943 2902.47254905 -615.97949219 2866.39111328 C-617.1109668 2865.87613281 -618.24244141 2865.36115234 -619.40820312 2864.83056641 C-649.87820675 2850.9548372 -680.19437249 2836.29535972 -709.36914062 2819.85449219 C-712.34645002 2818.18539449 -715.33793456 2816.54340322 -718.33105469 2814.90283203 C-734.41694994 2806.06585576 -750.2543786 2796.85376101 -765.97949219 2787.39111328 C-767.01686523 2786.76785156 -768.05423828 2786.14458984 -769.12304688 2785.50244141 C-772.11976789 2783.69925684 -775.1130382 2781.89052048 -778.10449219 2780.07861328 C-779.38018066 2779.30795532 -779.38018066 2779.30795532 -780.68164062 2778.52172852 C-795.03386468 2769.78124052 -809.01127696 2760.43214902 -822.99072266 2751.11206055 C-825.47619564 2749.45581001 -827.96412021 2747.80328767 -830.45214844 2746.15087891 C-841.0885623 2739.07235249 -851.58622487 2731.82179836 -861.97949219 2724.39111328 C-862.87313477 2723.75343018 -863.76677734 2723.11574707 -864.6875 2722.45874023 C-866.7473644 2720.98356042 -868.80255821 2719.50229828 -870.85449219 2718.01611328 C-871.58442383 2717.48775879 -872.31435547 2716.9594043 -873.06640625 2716.41503906 C-875.37265966 2714.74298081 -877.67663615 2713.06784717 -879.97949219 2711.39111328 C-880.77709961 2710.81039062 -881.57470703 2710.22966797 -882.39648438 2709.63134766 C-892.17877464 2702.496397 -901.84805579 2695.25266141 -911.31884766 2687.70898438 C-913.00303373 2686.37243094 -914.6948723 2685.04623807 -916.38964844 2683.72314453 C-924.73597562 2677.2057455 -932.9745989 2670.56281734 -941.17529297 2663.86328125 C-942.76222265 2662.56839817 -944.35297955 2661.2782085 -945.94433594 2659.98876953 C-952.79097355 2654.42901828 -959.4876775 2648.70543208 -966.16796875 2642.94824219 C-967.97311615 2641.39659393 -969.78387778 2639.85177743 -971.59667969 2638.30908203 C-978.00984354 2632.84676031 -984.3287963 2627.31178418 -990.53808594 2621.61767578 C-992.64104051 2619.69978121 -994.76618375 2617.81735283 -996.91699219 2615.95361328 C-1002.36933763 2611.20764458 -1007.67234316 2606.29792229 -1012.97949219 2601.39111328 C-1013.89239014 2600.54806641 -1013.89239014 2600.54806641 -1014.82373047 2599.68798828 C-1021.86519433 2593.17764992 -1028.85465329 2586.65038573 -1035.53808594 2579.77001953 C-1037.49333568 2577.86482418 -1039.47114832 2576.09402881 -1041.54199219 2574.32080078 C-1046.59535209 2569.93454332 -1051.30641994 2565.21441209 -1056.02514648 2560.47583008 C-1057.53941799 2558.9561966 -1059.05896649 2557.44198811 -1060.57910156 2555.92822266 C-1065.3619091 2551.14834438 -1070.01709887 2546.31174829 -1074.41674805 2541.17211914 C-1076.96353114 2538.26963786 -1079.7169696 2535.58642121 -1082.47949219 2532.89111328 C-1086.5777321 2528.89258724 -1090.4366504 2524.77662095 -1094.18066406 2520.44384766 C-1097.19059878 2517.00905787 -1100.33912856 2513.70630128 -1103.47949219 2510.39111328 C-1110.42037547 2503.06383031 -1117.05184893 2495.50280828 -1123.60449219 2487.82861328 C-1127.38364494 2483.40804746 -1131.18074933 2479.00416695 -1135.00024414 2474.6184082 C-1139.94207035 2468.94113518 -1144.81846102 2463.22746075 -1149.55371094 2457.37548828 C-1151.41792925 2455.08198942 -1153.29548617 2452.80296951 -1155.18652344 2450.53173828 C-1162.22639387 2442.06517332 -1169.05466412 2433.47731889 -1175.70214844 2424.69970703 C-1178.48651153 2421.02541834 -1181.31610858 2417.38878439 -1184.15942383 2413.76000977 C-1191.9723289 2403.78523403 -1199.52272976 2393.63408204 -1206.97949219 2383.39111328 C-1207.54055664 2382.62234863 -1208.10162109 2381.85358398 -1208.6796875 2381.06152344 C-1210.34523569 2378.77779877 -1212.00694248 2376.49133726 -1213.66699219 2374.20361328 C-1214.37770874 2373.22714844 -1214.37770874 2373.22714844 -1215.1027832 2372.23095703 C-1224.7193256 2358.92346172 -1233.81512357 2345.24036601 -1242.91699219 2331.57861328 C-1243.44273834 2330.78985809 -1243.9684845 2330.00110291 -1244.51016235 2329.18844604 C-1251.69496275 2318.40271924 -1258.82524405 2307.59325847 -1265.63427734 2296.56494141 C-1267.10818066 2294.18315645 -1268.5960344 2291.81040849 -1270.08496094 2289.43798828 C-1293.61001044 2251.84670596 -1314.80336865 2212.8628291 -1334.97949219 2173.39111328 C-1335.53636719 2172.30604492 -1336.09324219 2171.22097656 -1336.66699219 2170.10302734 C-1345.68638189 2152.49245213 -1353.95774672 2134.58621103 -1362.0244751 2116.52575684 C-1362.97302109 2114.4055774 -1363.92554478 2112.28723163 -1364.87939453 2110.16943359 C-1374.49833263 2088.80183116 -1383.51950223 2067.24366998 -1391.97949219 2045.39111328 C-1392.27706421 2044.62343628 -1392.57463623 2043.85575928 -1392.88122559 2043.06481934 C-1428.85461796 1950.12671788 -1455.73068257 1853.72106915 -1489.71520996 1612.78649902 C-1489.9649741 1609.57763555 -1490.22400271 1606.36963804 -1490.484375 1603.16162109 C-1495.95044635 1534.33712431 -1495.80637847 1463.34870405 -1490.23272705 1394.53729248 C-1489.96602096 1391.22374733 -1489.71196602 1387.90938348 -1489.45947266 1384.59472656 C-1481.07363946 1275.67332047 -1461.32705671 1167.4677918 -1313.37402344 785.90673828 C-1311.92146595 783.2864385 -1310.49430953 780.65361426 -1309.07324219 778.01611328 C-1301.67529818 764.29486883 -1293.92163442 750.80405183 -1285.97949219 737.39111328 C-1285.45323242 736.50117676 -1284.92697266 735.61124023 -1284.38476562 734.69433594 C-1277.63135868 723.29501381 -1270.67554353 712.0372205 -1263.55224609 700.86572266 C-1261.92921722 698.31200942 -1260.31859777 695.7507885 -1258.70996094 693.18798828 C-1245.46636535 672.14347535 -1231.36159006 651.67115158 -1216.97949219 631.39111328 C-1216.44936523 630.64345703 -1215.91923828 629.89580078 -1215.37304688 629.12548828 C-1207.06949102 617.44845337 -1198.4329074 606.04117037 -1189.71826172 594.66894531 C-1187.51272307 591.77963394 -1185.33735537 588.86943216 -1183.16699219 585.95361328 C-1171.90521795 570.90243297 -1160.04658266 556.27685317 -1147.85791016 541.96850586 C-1145.06299668 538.68501746 -1142.31849807 535.36667691 -1139.60449219 532.01611328 C-1131.44369191 522.00124926 -1122.89345544 512.31704913 -1114.16699219 502.79345703 C-1112.28288878 500.72430776 -1110.43494472 498.63257402 -1108.60449219 496.51611328 C-1104.0432766 491.27124946 -1099.29081914 486.200856 -1094.56445312 481.10546875 C-1093.01188242 479.42614781 -1091.46708971 477.74003687 -1089.92480469 476.05126953 C-1084.31136317 469.91446409 -1078.60239295 463.9287948 -1072.64746094 458.12158203 C-1070.62707482 456.05386622 -1068.74641107 453.98094745 -1066.87011719 451.78955078 C-1062.4990666 446.74739898 -1057.78970486 442.05115423 -1053.06420898 437.34545898 C-1051.54457551 435.83118748 -1050.03036701 434.31163898 -1048.51660156 432.79150391 C-1043.73672329 428.00869637 -1038.90012719 423.3535066 -1033.76049805 418.95385742 C-1030.85801676 416.40707432 -1028.17480012 413.65363587 -1025.47949219 410.89111328 C-1021.48096615 406.79287337 -1017.36499985 402.93395507 -1013.03222656 399.18994141 C-1009.59743678 396.18000669 -1006.29468018 393.03147691 -1002.97949219 389.89111328 C-995.65221499 382.95023546 -988.09125268 376.31867225 -980.41699219 369.76611328 C-976.71122515 366.59862809 -973.01137699 363.42527213 -969.33886719 360.21923828 C-960.72102999 352.69733763 -951.96931405 345.35956405 -943.10693359 338.12744141 C-941.00359684 336.41078648 -938.9035311 334.69019181 -936.80371094 332.96923828 C-929.65436977 327.12186741 -922.44836846 321.36617749 -915.10058594 315.77001953 C-912.00512214 313.4106485 -908.93006334 311.02632924 -905.85449219 308.64111328 C-894.36569167 299.7810463 -882.60772876 291.27036103 -870.85449219 282.76611328 C-870.21229736 282.30100342 -869.57010254 281.83589355 -868.90844727 281.35668945 C-866.60386413 279.69431644 -864.29249073 278.04176265 -861.97949219 276.39111328 C-861.41441956 275.98687134 -860.84934692 275.58262939 -860.26715088 275.1661377 C-849.24883173 267.29423462 -838.07140112 259.68104817 -826.79638672 252.18212891 C-824.11162069 250.39585614 -821.430182 248.60466992 -818.74902344 246.81298828 C-802.89703538 236.24034178 -786.83044683 226.02820648 -770.54199219 216.14111328 C-769.96198456 215.78904816 -769.38197693 215.43698303 -768.78439331 215.07424927 C-755.907138 207.26882084 -742.87159221 199.75286876 -729.74194336 192.3807373 C-728.56796574 191.72154375 -727.39429959 191.06179519 -726.22094727 190.40148926 C-707.04262016 179.60918846 -687.60814919 169.36803765 -667.98468018 159.40997314 C-666.0322028 158.41789617 -664.08149186 157.42243555 -662.13134766 156.42578125 C-643.3177682 146.8170859 -624.26318653 137.83840409 -604.95489502 129.26812744 C-603.05200578 128.42330694 -601.15020509 127.57607638 -599.24853516 126.72851562 C-525.10379322 93.78530708 -448.11869093 67.34478938 -369.58599854 47.06500244 C-367.00453177 46.39758704 -364.42435264 45.72535637 -361.84423828 45.05273438 C-310.58929764 31.74322043 -258.40423619 21.77195686 -205.97949219 14.39111328 C-205.01039917 14.25358643 -204.04130615 14.11605957 -203.04284668 13.97436523 C-179.41510539 10.62959614 -155.73766132 7.93497063 -131.97949219 5.70361328 C-130.97752808 5.60674225 -129.97556396 5.50987122 -128.9432373 5.4100647 C-86.07024447 1.31244315 -43.05064614 -0.12662271 0 0 Z " fill="#EF4646" transform="translate(1492.9794921875,-0.39111328125)"/>
<path d="M0 0 C1.55511733 -0.00111993 3.11023439 -0.00267716 4.66535089 -0.0046259 C8.92058149 -0.00870296 13.17578958 -0.00661578 17.43102014 -0.00348004 C22.08451533 -0.00116649 26.73800688 -0.00468982 31.39150134 -0.00744686 C39.5726891 -0.01149316 47.75387051 -0.01182981 55.93505891 -0.00974091 C68.18269146 -0.0066309 80.43031819 -0.00928098 92.67795032 -0.01303962 C113.55251774 -0.01927407 134.42708309 -0.02074563 155.3016513 -0.01962215 C176.45695777 -0.0184979 197.61226272 -0.01952368 218.76756889 -0.02319461 C220.11708508 -0.0234266 221.46660128 -0.02365858 222.81611748 -0.02389053 C228.25750174 -0.02483008 233.698886 -0.02578638 239.14027026 -0.02676172 C254.47822248 -0.02950691 269.81617474 -0.03188638 285.15412706 -0.03401369 C285.85694831 -0.03411124 286.55976957 -0.03420879 287.28388843 -0.03430929 C327.24614348 -0.03981337 367.20839863 -0.04011886 407.17065399 -0.04053015 C413.27891929 -0.0405934 419.38718458 -0.04065993 425.49544987 -0.04073071 C427.0264582 -0.0407484 428.55746653 -0.04076577 430.08847486 -0.04078283 C464.45427059 -0.04117067 498.82006611 -0.04334947 533.18586174 -0.04591308 C540.85652946 -0.04648464 548.52719718 -0.04703862 556.19786489 -0.04759372 C557.33999416 -0.0476764 557.33999416 -0.0476764 558.50519674 -0.04776075 C563.12717335 -0.04809525 567.74914997 -0.04842902 572.37112659 -0.04876231 C574.68650476 -0.0489294 577.00188293 -0.0490969 579.3172611 -0.04926445 C615.31673813 -0.05186629 651.31621517 -0.0540966 687.31569225 -0.05594665 C688.10005816 -0.05598702 688.88442408 -0.05602739 689.69255866 -0.05606898 C739.67252062 -0.05863197 789.65248247 -0.0595315 839.63244449 -0.05926865 C842.08997379 -0.05925589 844.54750309 -0.05924393 847.00503239 -0.05923224 C864.27001941 -0.0591499 881.53500643 -0.05904719 898.79999345 -0.05893936 C903.75019715 -0.05890859 908.70040085 -0.05887852 913.65060454 -0.05884854 C917.77971879 -0.05882345 921.90883304 -0.05879766 926.03794729 -0.05877043 C1004.02796591 -0.058259 1082.0179835 -0.05967721 1160.00800163 -0.06911784 C1160.82910976 -0.0692172 1161.65021789 -0.06931656 1162.49620808 -0.06941893 C1188.15179131 -0.07253031 1213.8073745 -0.07589679 1239.46295768 -0.07931072 C1265.78794794 -0.08281217 1292.11293821 -0.08628265 1318.4379285 -0.08957511 C1319.2485031 -0.08967664 1320.0590777 -0.08977816 1320.89421516 -0.08988277 C1371.66189459 -0.09623236 1422.42957372 -0.10015387 1473.19725353 -0.1014331 C1473.98139275 -0.10145313 1474.76553197 -0.10147315 1475.57343298 -0.10149379 C1510.01148055 -0.10236913 1544.44952809 -0.10268888 1578.88757567 -0.1024029 C1592.74212045 -0.10228862 1606.59666524 -0.10223255 1620.45121003 -0.10219958 C1622.74833038 -0.10219318 1625.04545073 -0.1021841 1627.34257108 -0.10217443 C1662.47306479 -0.10203796 1697.60355754 -0.10338249 1732.73405081 -0.10921961 C1733.87017123 -0.10940812 1733.87017123 -0.10940812 1735.02924358 -0.10960043 C1747.21282802 -0.11162941 1759.39641244 -0.11377344 1771.57999686 -0.11592724 C1806.17205435 -0.12203739 1840.76411058 -0.12707936 1875.35616869 -0.12495607 C1876.40936217 -0.124892 1876.40936217 -0.124892 1877.4838323 -0.12482664 C1892.80323781 -0.1238732 1908.12264321 -0.1223573 1923.44204861 -0.12028992 C1929.55214482 -0.11947362 1935.66224104 -0.11872999 1941.77233726 -0.11800891 C1942.77208666 -0.11788793 1942.77208666 -0.11788793 1943.79203302 -0.11776451 C1965.56121956 -0.11516562 1987.33039993 -0.11930261 2009.09958534 -0.1266801 C2029.83971239 -0.13356855 2050.57982918 -0.13332958 2071.319956 -0.12548796 C2083.48166435 -0.12110323 2095.6433425 -0.12218617 2107.80504835 -0.13135475 C2115.88389777 -0.13689839 2123.96272465 -0.13517697 2132.04157233 -0.12757196 C2136.62001366 -0.12346454 2141.19839556 -0.12240998 2145.77683323 -0.13032265 C2180.63700304 -0.18653399 2180.63700304 -0.18653399 2197.09845573 2.12649983 C2197.91300037 2.23595091 2198.72754502 2.34540198 2199.56677284 2.45816975 C2226.37239452 6.07273774 2252.80227531 14.24871373 2277.09845573 26.12649983 C2277.91346549 26.52175862 2278.72847526 26.91701741 2279.56818229 27.32425374 C2302.29248309 38.46183864 2323.13751883 52.64379221 2341.66486198 69.88040608 C2343.70250849 71.76105896 2345.77938178 73.54294579 2347.91095573 75.31399983 C2369.07744744 93.84547931 2385.86844915 118.48072808 2399.09845573 143.12649983 C2399.41202018 143.70448323 2399.72558463 144.28246663 2400.04865104 144.87796468 C2414.4821208 171.70491531 2423.79372017 201.00321288 2428.09845573 231.12649983 C2428.27650748 232.354493 2428.45455924 233.58248616 2428.63800651 234.84769124 C2430.04799111 245.20661923 2430.40991264 255.43512505 2430.35919791 265.88235921 C2430.34849213 268.49262293 2430.35916033 271.10219442 2430.37189323 273.71243733 C2430.39514181 300.46433553 2426.16617525 326.63409292 2418.09845573 352.12649983 C2417.8582067 352.91492268 2417.61795768 353.70334553 2417.37042838 354.51565999 C2410.39954319 377.22177282 2399.32536795 399.42846568 2386.09845573 419.12649983 C2385.69207877 419.73413167 2385.28570182 420.3417635 2384.86701041 420.96780843 C2367.92748287 446.02277334 2347.20068943 467.90869133 2323.09845573 486.12649983 C2322.54850944 486.54399495 2321.99856315 486.96149007 2321.43195182 487.39163655 C2297.49177226 505.42366304 2270.52407863 518.78994463 2242.09845573 528.12649983 C2241.35192741 528.3748055 2240.60539909 528.62311116 2239.8362487 528.87894124 C2228.13611706 532.71692486 2216.2195637 535.04353988 2204.09845573 537.12649983 C2202.2518737 537.45134358 2202.2518737 537.45134358 2200.36798698 537.78274983 C2187.41249711 539.92884803 2174.42653151 540.27493387 2161.32226062 540.25299966 C2159.76855977 540.25411929 2158.2148592 540.25567631 2156.66115917 540.25762557 C2152.4051986 540.26170691 2148.14926051 540.25961341 2143.89329998 540.2564797 C2139.24075039 540.25416796 2134.58820447 540.25768863 2129.93565562 540.26044652 C2121.75457334 540.26449445 2113.57349742 540.26482875 2105.3924145 540.26274057 C2093.1449095 540.25963163 2080.89741032 540.26227983 2068.64990574 540.26603928 C2047.77591136 540.27227494 2026.90191905 540.27374511 2006.02792388 540.27262181 C1984.87219652 540.27149768 1963.71647068 540.27252291 1942.56074363 540.27619427 C1941.21135791 540.27642627 1939.86197219 540.27665824 1938.51258647 540.27689019 C1933.0717523 540.27782974 1927.63091813 540.27878604 1922.19008397 540.27976138 C1906.8534252 540.28250663 1891.51676639 540.28488608 1876.18010753 540.28701335 C1875.12594601 540.28715968 1875.12594601 540.28715968 1874.05048829 540.28730896 C1834.08755034 540.29281349 1794.1246123 540.29311854 1754.16167404 540.29352982 C1748.05308442 540.29359307 1741.94449481 540.29365959 1735.83590519 540.29373037 C1734.30481794 540.29374806 1732.77373068 540.29376544 1731.24264343 540.29378249 C1696.87667733 540.29417032 1662.51071144 540.29634906 1628.14474544 540.29891275 C1620.47427252 540.29948431 1612.80379959 540.30003828 1605.13332667 540.30059338 C1604.37192662 540.3006485 1603.61052657 540.30070362 1602.82605379 540.30076041 C1598.2041968 540.30109492 1593.58233981 540.30142869 1588.96048282 540.30176198 C1586.64516621 540.30192906 1584.3298496 540.30209657 1582.01453299 540.30226412 C1546.0156928 540.30486597 1510.01685259 540.30709628 1474.01801234 540.30894631 C1473.2336533 540.30898668 1472.44929425 540.30902705 1471.64116675 540.30906865 C1421.66028359 540.3116317 1371.67940054 540.31253115 1321.69851732 540.31226831 C1319.24088146 540.31225556 1316.7832456 540.3122436 1314.32560975 540.3122319 C1297.05984672 540.31214956 1279.79408369 540.31204685 1262.52832066 540.31193902 C1257.57788795 540.31190825 1252.62745524 540.31187819 1247.67702254 540.31184821 C1243.54771658 540.31182311 1239.41841063 540.31179732 1235.28910467 540.3117701 C1157.29802359 540.31125868 1079.30694354 540.31267639 1001.31586295 540.32211751 C1000.08424714 540.32226655 1000.08424714 540.32226655 998.8277502 540.32241859 C973.17327507 540.32552996 947.51879997 540.32889645 921.86432487 540.33231038 C895.54052543 540.33581183 869.21672598 540.33928232 842.89292651 540.34257478 C842.08238716 540.3426763 841.27184781 540.34277783 840.43674665 540.34288243 C789.66998149 540.34923219 738.90321661 540.35315357 688.13645107 540.35443276 C687.35230509 540.35445279 686.56815911 540.35447282 685.76025113 540.35449345 C651.3215943 540.3553688 616.88293747 540.35568854 582.44428062 540.35540257 C568.58937894 540.35528829 554.73447725 540.35523222 540.87957556 540.35519925 C538.58239574 540.35519284 536.28521592 540.35518377 533.9880361 540.3551741 C498.85775232 540.35503763 463.72746949 540.35638189 428.59718615 540.36221927 C427.46112418 540.36240778 427.46112418 540.36240778 426.30211147 540.3626001 C414.1191861 540.36462906 401.93626076 540.3667731 389.75333541 540.36892691 C355.16157869 540.37503734 320.56982324 540.38007886 285.97806591 540.37795573 C285.27589023 540.37791302 284.57371455 540.37787031 283.85026082 540.3778263 C268.52953738 540.37687285 253.20881404 540.37535692 237.88809071 540.37328959 C231.77738556 540.37247329 225.66668041 540.37172965 219.55597526 540.37100857 C218.88941024 540.37092792 218.22284522 540.37084727 217.53608127 540.37076418 C195.76755047 540.36816561 173.99902585 540.37230153 152.23049618 540.37967976 C131.48936444 540.38656943 110.74824295 540.38632783 90.00711143 540.37848763 C77.84589694 540.37410403 65.68471267 540.37518312 53.52350068 540.38435441 C45.44369565 540.38990039 37.36391314 540.38817365 29.28410984 540.38057163 C24.7059407 540.37646646 20.12783095 540.3754036 15.54966546 540.38332232 C-18.48254376 540.43836663 -18.48254376 540.43836663 -34.95161208 538.36476847 C-37.97050496 537.99588001 -40.9992205 537.72897847 -44.02654427 537.43899983 C-87.95316531 531.26709259 -133.22545612 510.7397916 -167.31463021 482.43704671 C-168.81974544 481.19405309 -170.34836206 479.97967838 -171.87810677 478.76712483 C-187.20280804 466.33312949 -202.17380476 451.79070398 -213.71697396 435.75101155 C-214.94475465 434.06724142 -216.21751149 432.42662025 -217.50310677 430.78665608 C-230.38570774 414.13661211 -240.44713751 395.35478535 -248.90154427 376.12649983 C-249.41716927 374.99857014 -249.93279427 373.87064046 -250.46404427 372.70853108 C-264.22179438 340.81896357 -270.11892075 305.47544724 -270.15154427 270.93899983 C-270.15288369 270.09978993 -270.15422311 269.26058003 -270.15560311 268.39593953 C-270.15108148 255.29053527 -269.46882878 242.51466186 -267.30730599 229.56497639 C-266.93125172 227.30503053 -266.59922802 225.04354436 -266.28045052 222.77493733 C-257.00438386 160.29093803 -219.47279874 96.75662906 -168.79851693 58.68777913 C-167.71424378 57.89205475 -166.62640461 57.10116391 -165.53484505 56.31546468 C-163.82705037 55.07227183 -162.15884812 53.78648485 -160.49138802 52.48978108 C-114.60588796 17.20151102 -57.43897345 -0.09631189 0 0 Z " fill="#2F3136" transform="translate(419.9015442728996,1229.8735001683235)"/>
</svg>
