<?xml version="1.0" encoding="UTF-8"?>
<svg version="1.1" xmlns="http://www.w3.org/2000/svg" width="3001" height="3000">
<path d="M0 0 C4.72763645 0.00460886 9.45501415 -0.00223174 14.18261719 -0.02050781 C60.23380704 -0.19662877 106.31323624 1.41722748 152.15625 6.03442383 C153.10410873 6.12904907 154.05196747 6.22367432 155.02854919 6.32116699 C249.08218323 15.89947201 342.13081828 33.46899887 608.50390625 124.31567383 C610.26178467 125.08645264 610.26178467 125.08645264 612.05517578 125.87280273 C629.26384202 133.44219442 646.22487193 141.43399859 663.11914062 149.67407227 C667.31366494 151.70840446 671.5258523 153.70397527 675.73999023 155.69726562 C685.92629922 160.52226874 695.95696805 165.5722051 705.88378906 170.90991211 C708.79131387 172.46987557 711.70610314 174.01580244 714.62109375 175.56176758 C727.50220984 182.41743972 740.19291792 189.53276987 752.76171875 196.94458008 C757.34130604 199.64411816 761.95084433 202.28475356 766.57861328 204.90063477 C778.08051299 211.40497947 789.32224384 218.27737486 800.50390625 225.31567383 C801.33873535 225.83790527 802.17356445 226.36013672 803.03369141 226.89819336 C827.64844115 242.302078 851.88552793 258.42219107 875.50390625 275.31567383 C876.2505957 275.84918457 876.99728516 276.38269531 877.76660156 276.93237305 C883.03138397 280.70083699 888.27268632 284.50079627 893.50390625 288.31567383 C894.27589355 288.87754395 895.04788086 289.43941406 895.84326172 290.01831055 C906.86987153 298.05311667 917.72757189 306.27796673 928.45507812 314.70776367 C930.34756101 316.19297486 932.24489338 317.67166341 934.14453125 319.14770508 C942.76094312 325.8565276 951.19070744 332.78136413 959.6015625 339.74536133 C962.12021589 341.82441402 964.65579624 343.88235511 967.19140625 345.94067383 C973.11686279 350.78307865 978.90956945 355.77598945 984.70556641 360.77172852 C986.46938349 362.28603468 988.24097515 363.79064766 990.015625 365.29223633 C996.72094932 370.9767165 1003.25783548 376.79941675 1009.67358398 382.80932617 C1012.59795017 385.54866877 1015.53336719 388.25844198 1018.56640625 390.87817383 C1026.23306726 397.50388733 1033.7059875 404.39449505 1040.79298401 411.63719177 C1042.49741654 413.30930716 1044.26389427 414.85440869 1046.08178711 416.40185547 C1051.08759464 420.75963659 1055.75941683 425.42756022 1060.4453125 430.12426758 C1061.37182114 431.04981949 1062.29832977 431.9753714 1063.25291443 432.92897034 C1065.20172986 434.87632238 1067.14875362 436.82544295 1069.09448242 438.77587891 C1071.56754486 441.25463777 1074.04507158 443.72887814 1076.52397251 446.20179653 C1078.91686826 448.59017528 1081.30590943 450.98239462 1083.6953125 453.37426758 C1084.57465958 454.25159042 1085.45400665 455.12891327 1086.36000061 456.03282166 C1090.76338237 460.45283549 1095.02905477 464.9297722 1099.08250427 469.67408752 C1100.95176769 471.8329119 1102.95501563 473.82794412 1105.00390625 475.81567383 C1108.30997972 479.08291757 1111.41136086 482.43583014 1114.43359375 485.96411133 C1116.63095914 488.45998673 1118.89337541 490.88373254 1121.16943359 493.30761719 C1126.43145104 498.91156807 1131.45454576 504.60017226 1136.26171875 510.60473633 C1138.74298437 513.60473343 1141.35278814 516.46697669 1144.00390625 519.31567383 C1148.25926563 523.89492232 1152.27713781 528.60853971 1156.19921875 533.47973633 C1158.71185205 536.57155289 1161.29045265 539.59998294 1163.87890625 542.62817383 C1168.12723329 547.61585469 1172.21759358 552.70689528 1176.23999023 557.87792969 C1179.20826352 561.68755383 1182.23035134 565.4464925 1185.29296875 569.18066406 C1191.71266668 577.00847406 1197.85724013 585.00085942 1203.88232422 593.13500977 C1205.62304304 595.47588608 1207.37645964 597.80681925 1209.1328125 600.13598633 C1215.23704466 608.23295493 1221.3065573 616.35253923 1227.25390625 624.56567383 C1227.72368896 625.21262207 1228.19347168 625.85957031 1228.67749023 626.52612305 C1238.56943494 640.25474959 1247.93625513 654.3604258 1257.31640625 668.44067383 C1257.88694733 669.29695374 1258.4574884 670.15323364 1259.0453186 671.03546143 C1273.09722706 692.13826804 1286.59494027 713.49076949 1299.50390625 735.31567383 C1300.385625 736.80454102 1300.385625 736.80454102 1301.28515625 738.32348633 C1314.43462741 760.57192191 1326.99614789 783.12365608 1338.83105469 806.09863281 C1340.13117891 808.5988863 1341.44228131 811.0920195 1342.76269531 813.58154297 C1348.57643141 824.5486315 1354.2002208 835.59050774 1359.62890625 846.75317383 C1360.0333194 847.58372284 1360.43773254 848.41427185 1360.85440063 849.26998901 C1369.51667998 867.09336495 1377.64917812 885.12384325 1385.50390625 903.31567383 C1385.99410248 904.44721893 1385.99410248 904.44721893 1386.49420166 905.60162354 C1403.21357576 944.19842204 1417.98700813 983.48974337 1431.50390625 1023.31567383 C1431.8864859 1024.43830627 1431.8864859 1024.43830627 1432.27679443 1025.58361816 C1466.465823 1125.96161226 1488.52037929 1230.82798571 1353.42449951 2166.37683105 C1342.90047615 2187.73172858 1332.00118416 2208.81810959 1320.13232422 2229.46166992 C1317.79762901 2233.55351206 1315.51427049 2237.67337243 1313.22680664 2241.79174805 C1306.5593336 2253.78462928 1299.67103792 2265.61504511 1292.50390625 2277.31567383 C1292.00068848 2278.13922363 1291.4974707 2278.96277344 1290.97900391 2279.8112793 C1271.87541186 2311.02846328 1251.69173557 2341.47700258 1230.50390625 2371.31567383 C1229.97667969 2372.05897949 1229.44945313 2372.80228516 1228.90625 2373.56811523 C1220.04650196 2386.02781617 1210.81663113 2398.19232886 1201.50390625 2410.31567383 C1200.55313091 2411.55766654 1199.60258029 2412.79983134 1198.65234375 2414.04223633 C1189.78776684 2425.61895573 1180.77433845 2437.06110237 1171.50390625 2448.31567383 C1170.04546284 2450.10725089 1168.58713108 2451.89891885 1167.12890625 2453.69067383 C1161.99538225 2459.96300385 1156.75989005 2466.14598714 1151.50390625 2472.31567383 C1151.0042334 2472.90316406 1150.50456055 2473.4906543 1149.98974609 2474.09594727 C1144.24804705 2480.84294537 1138.46205249 2487.53554308 1132.5078125 2494.09692383 C1130.69078643 2496.10875776 1128.90446233 2498.14227816 1127.12890625 2500.19067383 C1122.83207979 2505.12113368 1118.39079619 2509.91879166 1113.9609375 2514.72924805 C1112.5019728 2516.31777898 1111.04894848 2517.91153878 1109.59765625 2519.50708008 C1105.23322833 2524.30021033 1100.846548 2529.03812615 1096.21266174 2533.57447815 C1094.52864071 2535.29046979 1092.9717881 2537.06682889 1091.41381836 2538.89746094 C1087.05753879 2543.90213895 1082.39071623 2548.57248503 1077.6953125 2553.25708008 C1076.76976059 2554.18358871 1075.84420868 2555.11009735 1074.89060974 2556.06468201 C1072.9432577 2558.01349743 1070.99413712 2559.9605212 1069.04370117 2561.90625 C1066.5649423 2564.37931244 1064.09070194 2566.85683915 1061.61778355 2569.33574009 C1059.2294048 2571.72863584 1056.83718545 2574.11767701 1054.4453125 2576.50708008 C1053.12932823 2577.82610069 1053.12932823 2577.82610069 1051.78675842 2579.17176819 C1047.36674458 2583.57514995 1042.88980788 2587.84082235 1038.14549255 2591.89427185 C1035.98666818 2593.76353527 1033.99163596 2595.76678321 1032.00390625 2597.81567383 C1028.71874982 2601.13993926 1025.34609937 2604.26207213 1021.80078125 2607.30395508 C1018.81565355 2609.91848019 1015.91213065 2612.61621528 1013.00390625 2615.31567383 C1008.2377354 2619.73084498 1003.43542917 2624.08490017 998.50390625 2628.31567383 C998.01873535 2628.73252441 997.53356445 2629.149375 997.03369141 2629.57885742 C994.10069941 2632.09848059 991.16484244 2634.61471954 988.2265625 2637.12817383 C985.7722692 2639.22799383 983.32186245 2641.3322002 980.875 2643.44067383 C973.83345732 2649.50403745 966.71963759 2655.45958326 959.50390625 2661.31567383 C957.73299707 2662.77391506 955.96216507 2664.23225002 954.19140625 2665.69067383 C948.3463697 2670.4707249 942.41741589 2675.13844426 936.46533203 2679.78393555 C934.41244555 2681.38709833 932.36249678 2682.99397434 930.3125 2684.60083008 C913.32679127 2697.89037288 896.06644204 2710.79843144 878.50390625 2723.31567383 C877.44091309 2724.07654297 877.44091309 2724.07654297 876.35644531 2724.8527832 C834.62608903 2754.66287927 791.11285313 2782.03727059 746.50390625 2807.31567383 C744.87485352 2808.23944824 744.87485352 2808.23944824 743.21289062 2809.18188477 C728.03791366 2817.76079317 712.68749453 2825.93927264 697.17578125 2833.88598633 C692.42864842 2836.31832423 687.70563184 2838.78925561 683.00146484 2841.3034668 C622.41489018 2873.64350893 557.49220131 2899.37943051 492.50390625 2921.31567383 C491.59423096 2921.62333679 490.68455566 2921.93099976 489.74731445 2922.24798584 C395.08502341 2954.22277731 297.65236221 2976.80228326 198.50390625 2989.31567383 C197.63088867 2989.42633179 196.75787109 2989.53698975 195.85839844 2989.65100098 C173.53538768 2992.46802065 151.18284247 2994.71805746 128.75390625 2996.50317383 C127.29150513 2996.62139496 127.29150513 2996.62139496 125.79956055 2996.74200439 C118.37184231 2997.33551122 110.94025802 2997.84338588 103.50390625 2998.31567383 C102.83852467 2998.35892918 102.17314308 2998.40218452 101.48759842 2998.44675064 C72.87927295 3000.30064881 44.31899386 3000.66120751 15.65600586 3000.63134766 C10.87303195 3000.62674048 6.09031389 3000.63357149 1.30737305 3000.65185547 C-25.11733862 3000.7517285 -51.45129233 3000.41100317 -77.83984375 2998.94067383 C-78.94225466 2998.87937601 -80.04466557 2998.81807819 -81.18048286 2998.75492287 C-171.01396919 2993.64249698 -260.67023966 2980.44959212 -348.03924561 2958.92059326 C-350.47083356 2958.32189333 -352.90352387 2957.72785661 -355.33642578 2957.13452148 C-445.03274712 2935.18898209 -532.14438429 2904.16272462 -661.71289062 2844.19262695 C-663.38062301 2843.37246064 -665.04963961 2842.55490713 -666.71875 2841.73754883 C-678.60399073 2835.91237155 -690.29487976 2829.79749506 -701.8828125 2823.40161133 C-705.66235798 2821.31575193 -709.45612201 2819.26036092 -713.265625 2817.22973633 C-727.4656675 2809.64946632 -741.34732706 2801.61308847 -755.14550781 2793.32543945 C-758.42140104 2791.36047639 -761.70379935 2789.40686466 -764.98828125 2787.45629883 C-798.03308873 2767.79808028 -830.124325 2746.54273529 -861.49609375 2724.31567383 C-862.67051025 2723.48447021 -862.67051025 2723.48447021 -863.86865234 2722.63647461 C-874.5724846 2715.03837032 -885.04038321 2707.14936281 -895.45703125 2699.16333008 C-899.21137239 2696.28764943 -902.99207167 2693.45163855 -906.79296875 2690.63793945 C-913.79705204 2685.44791374 -920.57504985 2680.03630657 -927.27563477 2674.46020508 C-931.68701094 2670.79107656 -936.14948965 2667.2066829 -940.68359375 2663.69067383 C-947.21739626 2658.6075875 -953.49561723 2653.2573542 -959.74609375 2647.83178711 C-962.07175611 2645.81694849 -964.40826744 2643.81495083 -966.74584961 2641.81396484 C-967.91401991 2640.81395632 -969.08149935 2639.81314019 -970.24829102 2638.81152344 C-973.14387378 2636.32596326 -976.04551867 2633.84826108 -978.9609375 2631.38598633 C-985.87198474 2625.53346658 -992.59441971 2619.52530782 -999.17163086 2613.29858398 C-1002.21141916 2610.42421771 -1005.28327522 2607.60685845 -1008.44140625 2604.86254883 C-1012.54789383 2601.2924854 -1016.5361368 2597.60957265 -1020.49609375 2593.87817383 C-1021.22304443 2593.19440674 -1021.94999512 2592.51063965 -1022.69897461 2591.80615234 C-1028.57061359 2586.25392039 -1034.30766982 2580.57656315 -1039.96679688 2574.80810547 C-1043.72397688 2570.99874241 -1047.59429745 2567.40072781 -1051.65966797 2563.92114258 C-1055.9768103 2560.14694317 -1059.90206651 2556.0495361 -1063.6171875 2551.68676758 C-1067.84769244 2546.8289828 -1072.40711648 2542.3321554 -1076.99609375 2537.81567383 C-1082.11839556 2532.77429306 -1087.12032867 2527.71758861 -1091.80273438 2522.26293945 C-1094.76692451 2518.85429174 -1097.89004813 2515.59463333 -1100.99609375 2512.31567383 C-1105.40472746 2507.66161103 -1109.72620216 2502.95649768 -1113.92871094 2498.11499023 C-1115.87578329 2495.8797997 -1117.87103844 2493.6909738 -1119.87109375 2491.50317383 C-1123.72314674 2487.23608483 -1127.36547224 2482.83464133 -1130.98046875 2478.36645508 C-1133.92535029 2474.79510029 -1136.95347637 2471.30372337 -1139.99609375 2467.81567383 C-1145.28516889 2461.74370633 -1150.43393336 2455.57874212 -1155.49609375 2449.31567383 C-1156.52540863 2448.05604169 -1157.55540421 2446.7969656 -1158.5859375 2445.53833008 C-1164.45210754 2438.36453081 -1170.23067211 2431.14386063 -1175.84765625 2423.77270508 C-1177.80106195 2421.21195687 -1179.779608 2418.67236559 -1181.76953125 2416.13989258 C-1189.38384351 2406.44179757 -1196.72930136 2396.59281301 -1203.89160156 2386.55688477 C-1205.4880901 2384.32685361 -1207.09537493 2382.10507542 -1208.70703125 2379.88598633 C-1225.68749466 2356.50503602 -1241.92578281 2332.65838821 -1257.49609375 2308.31567383 C-1257.94597656 2307.61394043 -1258.39585937 2306.91220703 -1258.859375 2306.18920898 C-1278.4097958 2275.64511846 -1296.71421663 2244.40545546 -1313.82470703 2212.43188477 C-1315.60096772 2209.12014193 -1317.38959464 2205.81527125 -1319.1796875 2202.51098633 C-1332.18832148 2178.44877319 -1344.29626681 2154.02349422 -1355.66143799 2129.13995361 C-1356.50059542 2127.30583467 -1357.3432653 2125.47336939 -1358.18701172 2123.64135742 C-1393.67328728 2046.55138001 -1422.16698295 1966.17992701 -1450.49609375 1857.31567383 C-1450.80226624 1856.0722522 -1450.80226624 1856.0722522 -1451.11462402 1854.80371094 C-1472.04039798 1769.68122329 -1484.68204434 1682.58053513 -1490.24609375 1595.12817383 C-1490.33484268 1593.73406784 -1490.33484268 1593.73406784 -1490.42538452 1592.3117981 C-1490.76504054 1586.88645224 -1491.07430167 1581.46014446 -1491.35507202 1576.03143311 C-1491.44762506 1574.24907102 -1491.5434047 1572.46687296 -1491.64273071 1570.68487549 C-1492.77998318 1549.91017385 -1492.68349178 1529.11216026 -1492.68139648 1508.31323242 C-1492.68131595 1504.18395539 -1492.68815521 1500.05479103 -1492.7019043 1495.92553711 C-1492.82487239 1458.34531571 -1491.83279291 1420.84414863 -1488.74609375 1383.37817383 C-1488.66372467 1382.35445679 -1488.58135559 1381.33073975 -1488.49649048 1380.27600098 C-1482.99918017 1312.36373799 -1473.31070757 1244.83413162 -1458.49609375 1178.31567383 C-1456.49609375 1179.31567383 -1456.49609375 1179.31567383 -1455.26611328 1182.74511719 C-1454.79618151 1184.2963229 -1454.3344348 1185.85002127 -1453.87890625 1187.40551758 C-1453.35560392 1189.14009612 -1452.83216017 1190.87463201 -1452.30859375 1192.60913086 C-1452.03402344 1193.52873596 -1451.75945312 1194.44834106 -1451.4765625 1195.39581299 C-1436.58565541 1245.13310003 -1417.33142495 1292.68328838 -1394.49609375 1339.31567383 C-1394.00641113 1340.32227051 -1393.51672852 1341.32886719 -1393.01220703 1342.3659668 C-1386.24033836 1356.26470814 -1379.04078384 1369.84080571 -1371.28710938 1383.21655273 C-1369.39857295 1386.48442097 -1367.53331197 1389.76498705 -1365.66796875 1393.04614258 C-1355.5169582 1410.80046149 -1344.40489087 1427.81770422 -1332.91992188 1444.73388672 C-1330.67166995 1448.04853592 -1328.45449709 1451.38316061 -1326.2421875 1454.72192383 C-1322.96828441 1459.64124937 -1319.59527745 1464.47358547 -1316.12109375 1469.25317383 C-1315.56437988 1470.02113281 -1315.00766602 1470.7890918 -1314.43408203 1471.58032227 C-1309.57556793 1478.25607939 -1304.58573242 1484.81448719 -1299.49609375 1491.31567383 C-1298.58068718 1492.49012027 -1297.66532393 1493.66460047 -1296.75 1494.83911133 C-1288.89609285 1504.89587711 -1280.84508284 1514.77453587 -1272.57104492 1524.48876953 C-1269.754788 1527.80152429 -1267.01566982 1531.16249249 -1264.30859375 1534.56567383 C-1259.65724105 1540.28977094 -1254.60750319 1545.61578478 -1249.51879883 1550.95141602 C-1246.15218221 1554.4819817 -1242.84682987 1558.04289638 -1239.625 1561.70629883 C-1232.99767739 1569.10323225 -1225.90548926 1576.0550649 -1218.87573242 1583.06640625 C-1216.43227453 1585.50449014 -1213.99422568 1587.94789172 -1211.55664062 1590.3918457 C-1209.98339354 1591.96443216 -1208.40983638 1593.53670847 -1206.8359375 1595.10864258 C-1206.11800522 1595.82859909 -1205.40007294 1596.5485556 -1204.66038513 1597.29032898 C-1200.65466566 1601.27777789 -1196.55681002 1605.09746006 -1192.26913452 1608.78074646 C-1189.50328354 1611.17515297 -1186.85122502 1613.68816358 -1184.18359375 1616.19067383 C-1179.31503625 1620.72469077 -1174.30277211 1625.00060164 -1169.11328125 1629.16723633 C-1166.47767762 1631.33079155 -1163.95186 1633.57956943 -1161.43359375 1635.87817383 C-1156.6211845 1640.25240453 -1151.614095 1644.30645047 -1146.49609375 1648.31567383 C-1145.50480469 1649.10200195 -1144.51351563 1649.88833008 -1143.4921875 1650.69848633 C-1097.10437707 1687.45427632 -1047.7702433 1719.55788652 -995.49609375 1747.31567383 C-994.45678711 1747.87222656 -993.41748047 1748.4287793 -992.34667969 1749.00219727 C-954.55714838 1769.20501776 -914.9407767 1786.1937788 -874.49609375 1800.31567383 C-873.8190741 1800.55265991 -873.14205444 1800.789646 -872.44451904 1801.03381348 C-834.78029096 1814.19401492 -796.52426882 1825.02659462 -757.49609375 1833.31567383 C-756.74344238 1833.47596069 -755.99079102 1833.63624756 -755.21533203 1833.8013916 C-664.94058659 1852.94835813 -571.73424521 1857.86526754 -282.97070312 1809.44116211 C-279.47861143 1808.31001099 -275.97982233 1807.20146933 -272.48046875 1806.09301758 C-240.7284217 1795.90220272 -209.6740178 1783.49008454 -179.49609375 1769.31567383 C-178.44147949 1768.82147949 -177.38686523 1768.32728516 -176.30029297 1767.81811523 C-168.99961166 1764.38323233 -161.74075335 1760.86695596 -154.49609375 1757.31567383 C-153.36284668 1756.76266602 -152.22959961 1756.2096582 -151.06201172 1755.63989258 C-134.88956235 1747.73108058 -119.03645462 1739.41192533 -103.49609375 1730.31567383 C-102.41295898 1729.68806152 -101.32982422 1729.06044922 -100.21386719 1728.41381836 C-84.21460325 1719.1213624 -68.6412539 1709.26568856 -53.24609375 1699.00317383 C-52.03880615 1698.19972031 -52.03880615 1698.19972031 -50.80712891 1697.3800354 C-35.43808128 1687.13197175 -20.39830807 1676.44267284 -5.74609375 1665.19067383 C-4.86687256 1664.51746094 -3.98765137 1663.84424805 -3.08178711 1663.15063477 C-0.55039442 1661.20929032 1.97744283 1659.26342686 4.50390625 1657.31567383 C5.18501465 1656.79199219 5.86612305 1656.26831055 6.56787109 1655.72875977 C13.70670106 1650.22995626 20.65371006 1644.55547477 27.46435547 1638.65454102 C30.94601091 1635.63834753 34.47378568 1632.70018368 38.06640625 1629.81567383 C42.8035418 1625.97286475 47.29174856 1621.91050424 51.73852539 1617.73950195 C54.59224521 1615.06416813 57.48206644 1612.44562029 60.43359375 1609.87817383 C72.30730532 1599.53541616 83.48656692 1588.43331274 94.62890625 1577.31567383 C95.43689163 1576.51157074 95.43689163 1576.51157074 96.26119995 1575.69122314 C101.64704679 1570.32582044 106.95920777 1564.94410007 111.90283203 1559.16186523 C114.78395898 1555.83965084 117.84798546 1552.688116 120.87890625 1549.50317383 C125.98486863 1544.10135898 130.84124473 1538.62695405 135.47265625 1532.81176758 C137.52606794 1530.28844052 139.67578682 1527.8963511 141.87890625 1525.50317383 C145.86002481 1521.12945361 149.52056945 1516.57238605 153.140625 1511.90136719 C156.11705865 1508.06449412 159.15518382 1504.28955494 162.24707031 1500.54516602 C169.16985441 1492.1475099 175.5845005 1483.45677282 181.88330078 1474.5847168 C183.4798448 1472.34936276 185.09525124 1470.12916649 186.71875 1467.91333008 C225.19463433 1415.33954548 257.3842518 1357.95722524 283.50390625 1298.31567383 C283.78300842 1297.68097168 284.0621106 1297.04626953 284.34967041 1296.39233398 C304.95856394 1249.49970021 320.9050187 1200.92338117 333.50390625 1151.31567383 C333.67944031 1150.62556213 333.85497437 1149.93545044 334.03582764 1149.22442627 C356.64436907 1059.99357822 364.88778499 966.12413537 309.20123291 622.34381104 C308.54304672 620.4295118 307.8911947 618.5130381 307.23974609 616.59643555 C297.31571476 587.44992518 285.19095286 559.16788066 271.95898438 531.3815918 C270.58810617 528.49308702 269.237716 525.59604483 267.89453125 522.69458008 C262.39763062 510.87944024 256.34327839 499.44382063 250.01416016 488.05541992 C248.54442893 485.38918588 247.1032452 482.70969812 245.671875 480.02270508 C233.72306679 457.64239764 220.30524217 436.29397119 206.25390625 415.19067383 C205.71658875 414.38236115 205.17927124 413.57404846 204.62567139 412.74124146 C194.39586649 397.37932999 183.72448755 382.34679964 172.50390625 367.69067383 C171.8380249 366.81878418 171.17214355 365.94689453 170.48608398 365.04858398 C164.76147271 357.58632703 158.87832761 350.26325707 152.89550781 343.00708008 C150.89772506 340.57889782 148.92209201 338.13280968 146.94140625 335.69067383 C139.11548302 326.15104478 131.0772618 316.82843956 122.6640625 307.80200195 C119.95196968 304.89207743 117.28773634 301.95427126 114.69140625 298.94067383 C112.0381788 295.86986821 109.22955354 293.01750301 106.33300781 290.17724609 C104.62399691 288.43789637 103.04497067 286.6476982 101.46875 284.78833008 C97.19910059 279.87953188 92.62395221 275.28507968 88.01586914 270.69726562 C86.5686624 269.25542162 85.12688599 267.80830267 83.68554688 266.3605957 C78.99942146 261.67145974 74.26562651 257.09267073 69.20678711 252.80419922 C67.38847129 251.21476961 65.69442794 249.53971362 64.00390625 247.81567383 C61.01518288 244.77972458 57.88684146 241.97058724 54.66015625 239.19067383 C52.30427667 237.14208289 49.99883165 235.04364381 47.69140625 232.94067383 C43.39430798 229.06216656 38.96631871 225.38701415 34.46484375 221.74926758 C31.80621569 219.56414188 29.20342235 217.33167632 26.609375 215.07128906 C19.59470302 208.96808899 12.3387483 203.26688413 4.91796875 197.66723633 C1.94796006 195.42425416 -0.99174525 193.14882149 -3.91015625 190.83911133 C-13.0554706 183.6067655 -22.39330557 176.82879553 -32.06640625 170.31958008 C-35.81588467 167.79421012 -39.47393485 165.17389288 -43.12109375 162.50317383 C-59.83341669 150.39593475 -77.6903186 139.72553277 -95.49609375 129.31567383 C-96.31432617 128.83710938 -97.13255859 128.35854492 -97.97558594 127.86547852 C-162.17222703 90.46525893 -230.10472009 60.6618928 -301.40332031 39.74023438 C-302.13511002 39.52337982 -302.86689972 39.30652527 -303.62086487 39.08309937 C-305.596172 38.49877638 -307.57376836 37.92220799 -309.55151367 37.34619141 C-312.49609375 36.31567383 -312.49609375 36.31567383 -314.49609375 34.31567383 C-299.8646041 30.89273949 -285.2045778 27.76264603 -270.43359375 25.00317383 C-269.41985687 24.81347015 -268.40612 24.62376648 -267.36166382 24.42831421 C-216.1925601 14.90451831 -164.61509875 8.29760664 -112.74609375 4.06567383 C-111.81439362 3.98845093 -110.88269348 3.91122803 -109.92276001 3.83166504 C-102.78516892 3.24855058 -95.64348848 2.76173912 -88.49609375 2.31567383 C-87.4887405 2.25177649 -87.4887405 2.25177649 -86.46103668 2.18658829 C-57.64197598 0.36979042 -28.87138465 -0.03044468 0 0 Z " fill="#FAA61A" transform="translate(1492.49609375,-0.315673828125)"/>
</svg>
