<?xml version="1.0" encoding="UTF-8"?>
<svg version="1.1" xmlns="http://www.w3.org/2000/svg" width="3001" height="3000">
<path d="M0 0 C1.1348735 -0.00282738 2.26974701 -0.00565475 3.43901062 -0.00856781 C9.47415381 -0.02343796 15.50927396 -0.0327376 21.54443359 -0.03710938 C26.39509827 -0.04144126 31.24557976 -0.05514298 36.09619141 -0.078125 C144.14954634 -0.57913084 252.26340827 11.12743532 514.42822266 78.84326172 C518.17914454 80.12868554 521.93844465 81.38820166 525.69921875 82.64453125 C567.79640106 96.79937716 609.00181449 113.79598382 649.40625 132.203125 C650.49679688 132.6995752 651.58734375 133.19602539 652.7109375 133.70751953 C680.62281194 146.45573142 708.36430143 159.69145503 735.40625 174.203125 C736.27862305 174.66960449 737.15099609 175.13608398 738.04980469 175.61669922 C771.20144589 193.38476233 804.087376 212.14416068 835.4453125 232.93359375 C839.67315761 235.73636764 843.95677242 238.42794737 848.28125 241.078125 C866.4893053 252.31120478 883.95973683 264.83049255 901.40625 277.203125 C902.15390625 277.73325195 902.9015625 278.26337891 903.671875 278.80957031 C916.12706625 287.66647423 928.28713207 296.89364718 940.40625 306.203125 C941.64824271 307.15390034 942.89040751 308.10445096 944.1328125 309.0546875 C955.7095319 317.91926441 967.15167854 326.9326928 978.40625 336.203125 C980.19782706 337.66156841 981.98949502 339.11990017 983.78125 340.578125 C990.05358002 345.711649 996.23656331 350.9471412 1002.40625 356.203125 C1002.99374023 356.70279785 1003.58123047 357.2024707 1004.18652344 357.71728516 C1010.93352155 363.4589842 1017.62611925 369.24497876 1024.1875 375.19921875 C1026.19933393 377.01624482 1028.23285434 378.80256892 1030.28125 380.578125 C1034.19420588 383.98618335 1038.01540399 387.49167779 1041.83227539 391.00634766 C1045.10336109 394.01667594 1048.40109153 396.99399583 1051.71875 399.953125 C1055.13158836 403.01216034 1058.3993525 406.16260947 1061.60597229 409.43528748 C1063.32686816 411.12517358 1065.10282953 412.68603904 1066.94116211 414.24633789 C1072.27195832 418.88569415 1077.23383651 423.88616153 1082.22265625 428.88671875 C1083.24805924 429.91144608 1084.27361046 430.93602511 1085.29930115 431.96046448 C1087.43643063 434.0961293 1089.57176609 436.23356708 1091.70581055 438.37231445 C1094.42100875 441.09320916 1097.14067333 443.8095881 1099.86171055 446.52464199 C1101.97667075 448.63596314 1104.08921207 450.74969175 1106.20106316 452.86412239 C1107.20211663 453.86583591 1108.20389385 454.86682677 1109.20645332 455.867033 C1114.32437114 460.97556739 1119.34231651 466.11073418 1124.03697205 471.61366272 C1125.73140753 473.58056891 1127.539172 475.400429 1129.40625 477.203125 C1132.55203336 480.30688454 1135.47919016 483.52188798 1138.359375 486.87109375 C1140.98792382 489.86583353 1143.69572025 492.78268329 1146.40625 495.703125 C1150.8213951 500.46932139 1155.17547516 505.2716007 1159.40625 510.203125 C1160.03152588 510.93088135 1160.03152588 510.93088135 1160.66943359 511.67333984 C1163.18905676 514.60633184 1165.70529572 517.54218881 1168.21875 520.48046875 C1170.31857 522.93476205 1172.42277637 525.3851688 1174.53125 527.83203125 C1180.59485893 534.87351743 1186.55325789 541.984753 1192.40625 549.203125 C1193.40180867 550.41710567 1194.39793954 551.63061724 1195.39453125 552.84375 C1202.12918944 561.05954201 1208.67088773 569.39807328 1215.09375 577.859375 C1217.89362586 581.54377221 1220.73487294 585.193916 1223.58862305 588.83666992 C1235.14777429 603.59874637 1246.16596296 618.73292087 1256.92089844 634.08837891 C1258.45370058 636.27068202 1259.99511611 638.44666276 1261.5390625 640.62109375 C1262.32192627 641.72493408 1262.32192627 641.72493408 1263.12060547 642.85107422 C1264.09505675 644.22460126 1265.07052251 645.59740959 1266.04736328 646.96923828 C1270.29254215 652.96376261 1274.35330936 659.07752141 1278.40625 665.203125 C1279.12474121 666.28891846 1279.84323242 667.37471191 1280.58349609 668.4934082 C1301.66091374 700.39197549 1321.6782015 732.865597 1340.40625 766.203125 C1340.9930957 767.24533203 1341.57994141 768.28753906 1342.18457031 769.36132812 C1353.07931841 788.7586062 1363.36182007 808.44332782 1373.42901611 828.28118896 C1374.84034457 831.0568633 1376.26279941 833.82681806 1377.68359375 836.59765625 C1385.81059786 852.53991077 1393.19304275 868.80781439 1400.48565674 885.14379883 C1401.37023164 887.12255354 1402.25845282 889.09962541 1403.14794922 891.07617188 C1441.21177608 975.74907335 1470.4632844 1064.31906878 1529.09375 1410.515625 C1529.15468842 1411.52953308 1529.21562683 1412.54344116 1529.27841187 1413.58807373 C1530.96169156 1442.01068423 1531.61739878 1470.42426595 1531.59375 1498.890625 C1531.59348312 1499.61863564 1531.59321625 1500.34664627 1531.59294128 1501.09671783 C1531.54725212 1601.13928886 1521.45322257 1700.42440816 1417.40625 2076.203125 C1416.94025391 2077.31753967 1416.94025391 2077.31753967 1416.46484375 2078.45446777 C1407.61239257 2099.61278634 1398.26856443 2120.49725903 1388.40625 2141.203125 C1387.63933838 2142.82154297 1387.63933838 2142.82154297 1386.85693359 2144.47265625 C1375.79376551 2167.81504146 1364.39934321 2190.96707582 1351.86523438 2213.55859375 C1350.3892399 2216.23395723 1348.9337946 2218.91953089 1347.484375 2221.609375 C1340.09011251 2235.31949336 1332.34851155 2248.80359105 1324.40625 2262.203125 C1323.78282715 2263.255 1323.1594043 2264.306875 1322.51708984 2265.390625 C1314.35713308 2279.13019971 1306.05550415 2292.76584262 1297.40625 2306.203125 C1296.85565918 2307.05986816 1296.30506836 2307.91661133 1295.73779297 2308.79931641 C1272.94831277 2344.18785882 1248.7711776 2378.4951124 1223.16748047 2411.90283203 C1221.65057677 2413.88401676 1220.13834421 2415.86859574 1218.62890625 2417.85546875 C1213.03983299 2425.1837674 1207.268689 2432.34805689 1201.4375 2439.484375 C1199.02775201 2442.43423891 1196.64654419 2445.40492578 1194.28125 2448.390625 C1190.78932167 2452.77207612 1187.17867657 2457.04517552 1183.546875 2461.31054688 C1180.57852683 2464.80102831 1177.66400569 2468.32868603 1174.78125 2471.890625 C1171.15790505 2476.34216308 1167.38661128 2480.62694955 1163.5234375 2484.87109375 C1161.62573831 2486.96136389 1159.75891585 2489.07298615 1157.90625 2491.203125 C1154.50767278 2495.10519514 1151.04251007 2498.94505481 1147.57421875 2502.78515625 C1145.76577443 2504.8021419 1143.9863766 2506.83804096 1142.21875 2508.890625 C1137.72593908 2514.04444718 1133.02855746 2519.00946597 1128.34912109 2523.99316406 C1125.95031487 2526.55049312 1123.5597066 2529.11476894 1121.18139648 2531.69116211 C1111.02243687 2542.66364725 1100.49957239 2553.26507029 1089.9152832 2563.82446289 C1087.43896457 2566.29502145 1084.96725308 2568.7701336 1082.49678135 2571.24653721 C1080.09534546 2573.65247853 1077.69008299 2576.05457926 1075.28515625 2578.45703125 C1073.97400597 2579.77121788 1073.97400597 2579.77121788 1072.6363678 2581.11195374 C1068.22758181 2585.50403421 1063.75915998 2589.75584533 1059.02867126 2593.80088806 C1057.05278536 2595.50861975 1055.21976327 2597.3248434 1053.40625 2599.203125 C1050.30249046 2602.34890836 1047.08748702 2605.27606516 1043.73828125 2608.15625 C1040.74354147 2610.78479882 1037.82669171 2613.49259525 1034.90625 2616.203125 C1030.14005361 2620.6182701 1025.3377743 2624.97235016 1020.40625 2629.203125 C1019.9210791 2629.61997559 1019.4359082 2630.03682617 1018.93603516 2630.46630859 C1015.99950329 2632.98897273 1013.05977632 2635.50784158 1010.1171875 2638.0234375 C1007.6980362 2640.09283198 1005.28686267 2642.17089807 1002.8828125 2644.2578125 C996.57632756 2649.72101413 990.18208977 2655.01391 983.58813477 2660.12695312 C979.58482346 2663.24219607 975.69422447 2666.46389245 971.84375 2669.765625 C966.680316 2674.18255712 961.3765863 2678.37816779 955.96484375 2682.48828125 C953.37743365 2684.45395041 950.81117576 2686.44449271 948.25390625 2688.44921875 C937.45607711 2696.91351239 926.4980185 2705.12844621 915.40625 2713.203125 C914.63748535 2713.76418945 913.8687207 2714.32525391 913.07666016 2714.90332031 C910.79293549 2716.5688685 908.50647398 2718.23057529 906.21875 2719.890625 C905.56777344 2720.36443604 904.91679687 2720.83824707 904.24609375 2721.32641602 C891.25880696 2730.71156259 877.91085307 2739.5955939 864.58032227 2748.48217773 C862.10459408 2750.13339242 859.63136213 2751.78829991 857.15820312 2753.44335938 C841.61074588 2763.82696656 825.83090302 2773.8229192 809.84375 2783.515625 C809.26417542 2783.86730743 808.68460083 2784.21898987 808.08746338 2784.58132935 C789.44446454 2795.8833914 770.54418502 2806.76076126 751.40625 2817.203125 C750.49601074 2817.70070313 749.58577148 2818.19828125 748.64794922 2818.7109375 C671.30335032 2860.90584963 590.58353931 2896.71844075 498.32226562 2926.93017578 C494.73394476 2928.09308189 491.1554097 2929.28400493 487.578125 2930.48046875 C391.53016331 2962.35802395 290.98484213 2981.93160132 151.71875 2996.453125 C150.31935684 2996.56882339 150.31935684 2996.56882339 148.89169312 2996.68685913 C141.73451009 2997.27026424 134.57321094 2997.75674133 127.40625 2998.203125 C126.73387676 2998.24572323 126.06150352 2998.28832146 125.36875534 2998.33221054 C95.40818074 3000.21938305 65.49288662 3000.56779458 35.47883224 3000.52118301 C31.78895779 3000.51554122 28.09908793 3000.5127217 24.40921021 3000.51010132 C-9.63174776 3000.4749546 -43.57386568 3000.29075549 -77.5178833 2997.45959473 C-80.77292587 2997.18818509 -84.0287206 2996.92730901 -87.28466797 2996.66699219 C-169.6899237 2989.99609748 -251.34818614 2977.18160878 -331.59375 2957.203125 C-332.54727356 2956.96636047 -333.50079712 2956.72959595 -334.48321533 2956.48565674 C-363.46324522 2949.27577713 -392.10598915 2941.15678755 -420.59375 2932.203125 C-421.43125793 2931.9410022 -422.26876587 2931.67887939 -423.13165283 2931.40881348 C-460.85205618 2919.60143595 -498.06382277 2906.30588574 -534.59375 2891.203125 C-535.86126176 2890.68147934 -537.1288413 2890.15999834 -538.39648438 2889.63867188 C-586.58430513 2869.79678389 -634.29620122 2847.98765391 -679.88671875 2822.69335938 C-682.72668221 2821.12994515 -685.57970375 2819.59305886 -688.4375 2818.0625 C-702.6849628 2810.42955823 -716.69573464 2802.4543807 -730.59375 2794.203125 C-731.64272461 2793.58115234 -732.69169922 2792.95917969 -733.77246094 2792.31835938 C-747.51539499 2784.1567989 -761.14218405 2775.83662281 -774.59375 2767.203125 C-775.30934082 2766.74486328 -776.02493164 2766.28660156 -776.76220703 2765.81445312 C-799.08788069 2751.50247319 -820.99297377 2736.58505427 -842.59375 2721.203125 C-843.30756836 2720.69555664 -844.02138672 2720.18798828 -844.75683594 2719.66503906 C-857.23824955 2710.77378487 -869.45418789 2701.55446487 -881.59375 2692.203125 C-882.39377441 2691.58759766 -883.19379883 2690.97207031 -884.01806641 2690.33789062 C-894.08427092 2682.58337122 -904.02220561 2674.68621707 -913.84960938 2666.63134766 C-915.42283924 2665.34307852 -917.00023248 2664.05989775 -918.578125 2662.77734375 C-924.0263336 2658.34476941 -929.40721704 2653.83965539 -934.75634766 2649.28857422 C-938.18454494 2646.3769964 -941.65367273 2643.52534554 -945.15625 2640.703125 C-950.22694551 2636.5785651 -955.02567479 2632.20695901 -959.81640625 2627.765625 C-962.70605673 2625.09950585 -965.64884004 2622.50714147 -968.6171875 2619.9296875 C-975.59280409 2613.83636233 -982.42373623 2607.57401385 -989.23339844 2601.29638672 C-991.32440385 2599.36909599 -993.42159451 2597.44961755 -995.5246582 2595.53540039 C-1007.85224776 2584.23857403 -1019.60250543 2572.34698968 -1031.41210938 2560.51513672 C-1034.49589298 2557.42561203 -1037.58420804 2554.34066187 -1040.67383575 2551.2569828 C-1043.08301475 2548.85143394 -1045.48978685 2546.44348826 -1047.89585876 2544.034832 C-1049.03367542 2542.89635517 -1050.17221612 2541.75860142 -1051.3115387 2540.62163162 C-1057.28752159 2534.65530516 -1063.10532279 2528.62707407 -1068.59375 2522.203125 C-1069.89543755 2520.7868606 -1071.20557872 2519.37821537 -1072.53125 2517.984375 C-1073.53285156 2516.92669922 -1073.53285156 2516.92669922 -1074.5546875 2515.84765625 C-1075.22757813 2515.13996094 -1075.90046875 2514.43226563 -1076.59375 2513.703125 C-1081.17960226 2508.88007348 -1085.68365459 2504.01340252 -1090.04394531 2498.98486328 C-1091.98399841 2496.75447458 -1093.97425303 2494.57234487 -1095.96875 2492.390625 C-1099.91746445 2488.02026816 -1103.6400221 2483.50009421 -1107.34375 2478.921875 C-1109.52876569 2476.28164771 -1111.78546391 2473.7358278 -1114.09375 2471.203125 C-1118.79996538 2466.03119039 -1123.19950078 2460.64033739 -1127.59375 2455.203125 C-1129.03041276 2453.4524376 -1130.46792117 2451.70244385 -1131.90625 2449.953125 C-1141.4217172 2438.31028298 -1150.71572235 2426.51956633 -1159.81054688 2414.54541016 C-1161.70613804 2412.05550029 -1163.6101853 2409.57222377 -1165.515625 2407.08984375 C-1183.52616085 2383.59812316 -1200.56174198 2359.44055338 -1216.95361328 2334.79370117 C-1218.72213385 2332.13553893 -1220.49559958 2329.4807252 -1222.26953125 2326.82617188 C-1232.83571522 2310.98397041 -1243.03423935 2294.92444192 -1252.90625 2278.640625 C-1253.25959412 2278.05805939 -1253.61293823 2277.47549377 -1253.97698975 2276.87527466 C-1261.71771759 2264.10047674 -1269.22954626 2251.19877867 -1276.59375 2238.203125 C-1277.51752441 2236.57407227 -1277.51752441 2236.57407227 -1278.45996094 2234.91210938 C-1287.0452106 2219.72591554 -1295.23022124 2204.36463101 -1303.1796875 2188.83984375 C-1305.53053106 2184.25099196 -1307.92808613 2179.69334533 -1310.37866211 2175.15722656 C-1318.07573816 2160.85543645 -1324.80041963 2146.0564709 -1331.61462402 2131.32025146 C-1332.53889304 2129.3217401 -1333.46513948 2127.32415553 -1334.39160156 2125.32666016 C-1351.07895707 2089.28550584 -1366.09165344 2052.55070214 -1379.59375 2015.203125 C-1379.87778687 2014.4180658 -1380.16182373 2013.63300659 -1380.45446777 2012.82415771 C-1384.60977271 2001.32111547 -1388.6539894 1989.78174127 -1392.59375 1978.203125 C-1392.84278076 1977.47148132 -1393.09181152 1976.73983765 -1393.34838867 1975.98602295 C-1426.26311384 1879.02952239 -1447.93310147 1778.28048429 -1467.59375 1590.203125 C-1467.68623016 1588.84344604 -1467.68623016 1588.84344604 -1467.78057861 1587.45629883 C-1471.69040679 1529.77048628 -1471.67540896 1470.61002335 -1467.77734375 1412.92407227 C-1467.58064854 1410.00895516 -1467.3918428 1407.0933782 -1467.203125 1404.17773438 C-1460.2084095 1297.6613179 -1442.58579571 1192.20086153 -1298.88671875 802.59765625 C-1297.3685753 799.78610962 -1295.87193614 796.96351855 -1294.375 794.140625 C-1287.4496202 781.12339507 -1280.24954397 768.30689815 -1272.76171875 755.60546875 C-1270.13855564 751.15251585 -1267.59557713 746.66248071 -1265.09375 742.140625 C-1259.24686309 731.63874828 -1252.92048401 721.42054721 -1246.59375 711.203125 C-1246.08344238 710.3776416 -1245.57313477 709.5521582 -1245.04736328 708.70166016 C-1236.48237343 694.90674574 -1227.46427766 681.40659899 -1218.46875 667.890625 C-1217.87382751 666.99556244 -1217.27890503 666.10049988 -1216.66595459 665.17831421 C-1208.82302408 653.38717289 -1200.82427647 641.72697334 -1192.59375 630.203125 C-1191.96774902 629.32164795 -1191.34174805 628.4401709 -1190.69677734 627.53198242 C-1182.48967855 615.99131306 -1173.94547375 604.72047925 -1165.33251953 593.48095703 C-1163.12698088 590.59164566 -1160.95161318 587.68144387 -1158.78125 584.765625 C-1150.9964692 574.35626096 -1142.85707084 564.2350343 -1134.59375 554.203125 C-1133.13530659 552.41154794 -1131.67697483 550.61987998 -1130.21875 548.828125 C-1122.17375034 538.99844604 -1113.8974646 529.36200416 -1105.6171875 519.73046875 C-1103.63196036 517.41947055 -1101.65868193 515.09912158 -1099.6953125 512.76953125 C-1093.64229468 505.60865857 -1087.39335712 498.67957691 -1080.93237305 491.88330078 C-1077.98710308 488.78145698 -1075.092246 485.65500597 -1072.29223633 482.42089844 C-1058.53522998 466.65963575 -1043.55386312 452.00489979 -1028.75488281 437.23388672 C-1025.68110306 434.16586119 -1022.61191621 431.09328594 -1019.54398346 428.0194149 C-1017.14701644 425.61881892 -1014.74765417 423.2206283 -1012.34757996 420.82313919 C-1011.21468547 419.69090453 -1010.08251307 418.55794682 -1008.9511261 417.42420578 C-1003.00514843 411.46854651 -996.99509193 405.67365832 -990.59375 400.203125 C-989.1774856 398.90143745 -987.76884037 397.59129628 -986.375 396.265625 C-985.66988281 395.59789062 -984.96476562 394.93015625 -984.23828125 394.2421875 C-983.53058594 393.56929688 -982.82289063 392.89640625 -982.09375 392.203125 C-974.50902146 384.9914159 -966.68368791 378.11425667 -958.71875 371.328125 C-954.56168311 367.77911167 -950.44799498 364.19638478 -946.40625 360.515625 C-942.22005699 356.71805251 -937.89355986 353.13246556 -933.5 349.578125 C-930.94026891 347.48630175 -928.41683724 345.36146132 -925.90380859 343.21435547 C-919.1898238 337.47827276 -912.31400733 331.98354764 -905.34228516 326.56494141 C-903.07012442 324.79530826 -900.80771805 323.0134672 -898.5456543 321.23095703 C-896.20504946 319.3876174 -893.86035745 317.54951065 -891.515625 315.71142578 C-890.18127434 314.66421816 -888.84801776 313.61561555 -887.515625 312.56591797 C-877.13154404 304.3879873 -866.59351748 296.48563259 -855.83496094 288.80761719 C-852.8622174 286.67941778 -849.90492357 284.53025396 -846.94677734 282.38183594 C-789.95004257 241.03640703 -729.90012975 203.98682704 -667.59375 171.203125 C-665.88445312 170.30110352 -665.88445312 170.30110352 -664.140625 169.38085938 C-631.87945053 152.39265042 -599.0612761 136.6677742 -565.59375 122.203125 C-564.83725159 121.87526001 -564.08075317 121.54739502 -563.30133057 121.20959473 C-475.22632941 83.05130882 -383.3750346 53.75570483 0 0 Z " fill="#737E8D" transform="translate(1469.59375,-0.203125)"/>
<path d="M0 0 C0.7693689 0.07496704 1.53873779 0.14993408 2.3314209 0.22717285 C12.54561356 1.22460859 22.73046647 2.39738867 32.90655518 3.72717285 C35.00998364 4.00130111 37.11404874 4.27005268 39.21826172 4.53808594 C83.83268435 10.26285025 128.44786348 18.97402886 171.46337891 32.2265625 C173.85858518 32.95688141 176.26009555 33.65651671 178.66796875 34.34375 C193.60754746 38.64104804 208.26318179 43.80055262 222.94216919 48.90315247 C226.78852192 50.23909023 230.6395216 51.55670925 234.50390625 52.83984375 C280.80892445 68.32485349 326.26686586 90.14654805 368.47900391 114.55810547 C371.55105553 116.31517858 374.65605835 118.00592615 377.7668457 119.69311523 C407.71225115 135.99788498 436.75432962 155.50438309 464 176 C464.83917969 176.63099609 465.67835937 177.26199219 466.54296875 177.91210938 C472.7232917 182.57187668 478.87132323 187.27255931 485 192 C485.68642578 192.52899902 486.37285156 193.05799805 487.08007812 193.60302734 C494.51930172 199.35030445 501.77315501 205.27785938 508.91796875 211.38671875 C511.73635029 213.79081313 514.61171953 216.11767994 517.5 218.4375 C522.88573414 222.81684878 527.94816799 227.50044838 533.01953125 232.234375 C535.26598689 234.32910924 537.54473428 236.37329669 539.875 238.375 C551.69006887 248.62184222 562.80928353 259.64616197 573.84619141 270.71582031 C576.02261269 272.89766908 578.20442239 275.07402913 580.38671875 277.25 C581.79980037 278.66374152 583.21257223 280.07779274 584.625 281.4921875 C585.2636499 282.12881317 585.9022998 282.76543884 586.56030273 283.4213562 C590.33421205 287.21471161 593.92497371 291.11948496 597.41445923 295.17634583 C599.98487159 298.13277768 602.6872772 300.96316841 605.375 303.8125 C610.00272311 308.75748862 614.39827818 313.81227238 618.6328125 319.1015625 C621.46987564 322.57532628 624.41891018 325.94012606 627.375 329.3125 C632.98045122 335.73515975 638.30592422 342.32717477 643.51074219 349.07666016 C645.14557387 351.18800507 646.794484 353.28786031 648.4453125 355.38671875 C655.08341407 363.84127003 661.55582568 372.37047557 667.71972656 381.17675781 C669.11450509 383.16306712 670.52121784 385.14056482 671.9296875 387.1171875 C686.3743505 407.41642121 700.10256426 428.27695357 712.69775391 449.77832031 C713.66019479 451.42027982 714.62662118 453.05990469 715.59521484 454.69824219 C725.70820051 471.82719932 735.019942 489.25836327 744 507 C744.78902359 508.54949898 745.57808007 510.09898122 746.3671875 511.6484375 C748.27723181 515.41665294 750.14623418 519.2038346 752 523 C752.35803711 523.72864258 752.71607422 524.45728516 753.08496094 525.20800781 C775.73443094 571.44350819 794.51420924 620.29810378 808 670 C808.37520857 671.36242662 808.75088871 672.72472343 809.12695312 674.08691406 C815.30160443 696.50530409 820.61091172 719.01571724 825.16113281 741.81835938 C825.89487267 745.49310882 826.65864605 749.16100348 827.4296875 752.828125 C833.89105443 784.12323276 836.80222896 816.07300978 839.7918396 847.8494873 C839.93964767 849.37649788 840.09380906 850.90289941 840.25234985 852.42883301 C842.52342067 874.32036267 842.15717753 896.359165 842.13037109 918.33984375 C842.12467422 923.05278561 842.12806722 927.76567105 842.1337986 932.47861099 C842.174071 971.13038395 842.174071 971.13038395 841 988 C840.94455017 988.81251221 840.88910034 989.62502441 840.83197021 990.4621582 C840.41502282 996.3979178 839.91417002 1002.32419884 839.375 1008.25 C839.29307404 1009.16123627 839.21114807 1010.07247253 839.1267395 1011.01132202 C837.66785626 1027.00581257 835.67192434 1042.90912599 833.4375 1058.8125 C833.2160733 1060.39629456 833.2160733 1060.39629456 832.99017334 1062.01208496 C831.33537438 1073.76306334 829.44647772 1085.38614535 827 1097 C826.55428379 1099.28822719 826.11288693 1101.5772999 825.67578125 1103.8671875 C820.61595154 1130.01799056 814.55498816 1155.868256 806.79833984 1181.36083984 C806.0431973 1183.85719791 805.30857443 1186.35847121 804.58203125 1188.86328125 C784.62024727 1257.34485213 756.17632961 1324.50835355 720 1386 C718.9355658 1387.83426874 717.87177469 1389.66891081 716.80859375 1391.50390625 C706.79711794 1408.69788836 696.20073922 1425.55447019 685 1442 C684.4121875 1442.8672168 684.4121875 1442.8672168 683.8125 1443.75195312 C673.34573698 1459.18085532 662.49383993 1474.31848655 651 1489 C650.08459343 1490.17444644 649.16923018 1491.34892665 648.25390625 1492.5234375 C639.55994925 1503.65586976 630.59992312 1514.55167618 621.44140625 1525.30419922 C619.99800384 1527.00234846 618.56118577 1528.70590193 617.125 1530.41015625 C611.31348754 1537.27963211 605.34002149 1543.9597713 599.15893555 1550.49951172 C596.10267237 1553.73373452 593.11214526 1557.00742668 590.171875 1560.34765625 C583.65965613 1567.60548597 576.70935791 1574.43964721 569.80688477 1581.32348633 C567.43585437 1583.6891419 565.07023578 1586.06011514 562.70507812 1588.43164062 C561.17740396 1589.95865417 559.64941972 1591.48535757 558.12109375 1593.01171875 C557.077006 1594.05884285 557.077006 1594.05884285 556.01182556 1595.12712097 C552.05955687 1599.06082508 548.00994468 1602.8224541 543.7807312 1606.4573822 C541.01293899 1608.85507452 538.35777593 1611.37000879 535.6875 1613.875 C530.81414451 1618.41348524 525.79696023 1622.69348797 520.6015625 1626.86328125 C518.05013271 1628.95882494 515.61673227 1631.13963155 513.1875 1633.375 C508.21929677 1637.89653512 502.99196423 1642.01152206 497.6875 1646.125 C494.63925817 1648.49012633 491.63449264 1650.90408792 488.63818359 1653.33447266 C480.07726083 1660.26517959 471.25655833 1666.81150824 462.34814453 1673.28710938 C460.15980496 1674.88342778 457.98276199 1676.49383647 455.80859375 1678.109375 C384.93782404 1730.45407215 304.43075645 1771.03421129 221.30566406 1799.84863281 C217.98663086 1801.00465649 214.67642199 1802.18343597 211.3671875 1803.3671875 C197.80279415 1808.18945624 184.16847752 1812.37468906 170.26757812 1816.10986328 C166.87334919 1817.03450156 163.4910833 1817.99546486 160.109375 1818.96484375 C142.91876164 1823.8656558 125.62817195 1827.96962066 108.1262207 1831.56317139 C105.96449773 1832.00729388 103.80353716 1832.45500883 101.64257812 1832.90283203 C80.24830824 1837.31819744 58.81549002 1840.94280103 37.14801025 1843.72393799 C35.0284421 1843.99634462 32.90947951 1844.27314086 30.79052734 1844.55029297 C20.5440226 1845.87886044 10.28329741 1846.99799903 0 1848 C-0.76421265 1848.0762561 -1.52842529 1848.15251221 -2.3157959 1848.2310791 C-86.42860229 1856.55825134 -174.10795348 1852.08333171 -257 1836 C-257.93763184 1835.82178711 -258.87526367 1835.64357422 -259.84130859 1835.45996094 C-286.99477075 1830.25087069 -314.43513996 1824.08114855 -340.87402344 1815.95654297 C-343.3306717 1815.2048132 -345.78948547 1814.46264327 -348.25097656 1813.72705078 C-367.28049083 1808.038426 -386.14749376 1802.2217058 -404.63378906 1794.92578125 C-407.39255895 1793.84641111 -410.1692027 1792.82342418 -412.95166016 1791.80712891 C-429.57621071 1785.71305986 -445.93122802 1778.82063082 -462.1875 1771.8125 C-463.04545166 1771.44543945 -463.90340332 1771.07837891 -464.78735352 1770.70019531 C-472.31252368 1767.42371662 -479.61437932 1763.73104431 -486.9390564 1760.03518677 C-490.20140958 1758.39654666 -493.47802736 1756.78715727 -496.75390625 1755.17578125 C-511.82211499 1747.74209974 -526.68337815 1740.0959347 -541.20507812 1731.62841797 C-544.15633502 1729.90891382 -547.11666025 1728.20576258 -550.078125 1726.50390625 C-596.43735176 1699.77525239 -640.43184335 1668.77373995 -681.17407227 1634.07421875 C-684.48642248 1631.25810993 -687.84713621 1628.51932347 -691.25 1625.8125 C-697.03968431 1621.11103829 -702.41929048 1615.99557661 -707.81152344 1610.84692383 C-708.49633789 1610.19361084 -709.18115234 1609.54029785 -709.88671875 1608.8671875 C-710.48701904 1608.29081543 -711.08731934 1607.71444336 -711.70581055 1607.12060547 C-713.64988065 1605.32362846 -715.62864913 1603.59652728 -717.63574219 1601.87133789 C-722.61883836 1597.5251864 -727.27297731 1592.87060657 -731.94140625 1588.19140625 C-732.86791489 1587.26585434 -733.79442352 1586.34030243 -734.74900818 1585.38670349 C-736.69782361 1583.43935145 -738.64484737 1581.49023087 -740.59057617 1579.53979492 C-743.06363861 1577.06103605 -745.54116533 1574.58679569 -748.02006626 1572.1138773 C-750.41296201 1569.72549855 -752.80200318 1567.3332792 -755.19140625 1564.94140625 C-756.07075333 1564.0640834 -756.9501004 1563.18676056 -757.85609436 1562.28285217 C-762.24384622 1557.87852727 -766.49841851 1553.41827179 -770.54273987 1548.69537354 C-772.75078161 1546.12654217 -775.06622076 1543.66614438 -777.375 1541.1875 C-781.64519259 1536.56566169 -785.68225373 1531.80576052 -789.62890625 1526.90234375 C-792.31831577 1523.61036472 -795.09181954 1520.40005506 -797.875 1517.1875 C-803.28142628 1510.92024303 -808.43114274 1504.48540482 -813.49462891 1497.93945312 C-815.1376503 1495.82265748 -816.79268508 1493.71561113 -818.44921875 1491.609375 C-825.05858459 1483.19010947 -831.51626513 1474.70437747 -837.64697266 1465.93017578 C-839.15507023 1463.77878288 -840.67687939 1461.63743094 -842.19921875 1459.49609375 C-893.7909272 1386.6844467 -933.69866985 1307.17993871 -963 1223 C-963.28681641 1222.1848291 -963.57363281 1221.3696582 -963.86914062 1220.52978516 C-968.56537118 1207.15147268 -972.41288239 1193.51317265 -976.30332947 1179.88380432 C-977.25208973 1176.56789488 -978.21884471 1173.25888329 -979.21875 1169.95800781 C-982.52144442 1159.02179505 -985.2995293 1148.00369535 -987.875 1136.875 C-988.08932678 1135.95323975 -988.30365356 1135.03147949 -988.5244751 1134.08178711 C-994.88040819 1106.62547354 -999.74576419 1078.88260977 -1003.59130859 1050.96582031 C-1003.98503393 1048.10860683 -1004.39239927 1045.25358651 -1004.80078125 1042.3984375 C-1018.41954308 945.09449469 -1013.63213935 845.42612435 -990.8125 724.48095703 C-990.22105415 721.94705231 -989.63740905 719.41215969 -989.0625 716.87451172 C-985.62672998 701.70985065 -982.14805477 686.60832359 -977.46875 671.76953125 C-976.40695573 668.39000387 -975.44295011 664.99729278 -974.53125 661.57421875 C-963.75234934 621.14995594 -948.3304418 582.03052636 -931 544 C-930.22873779 542.30520508 -930.22873779 542.30520508 -929.44189453 540.57617188 C-908.66729351 495.07049731 -884.56362599 451.83827648 -856.875 410.1875 C-856.41141083 409.48930145 -855.94782166 408.79110291 -855.47018433 408.07174683 C-849.16054619 398.57984426 -842.68675906 389.23002585 -836 380 C-835.3723877 379.13157471 -834.74477539 378.26314941 -834.09814453 377.3684082 C-827.24279983 367.91864825 -820.22919448 358.62951724 -812.875 349.5625 C-810.44618186 346.56761584 -808.0721179 343.53383949 -805.70922852 340.48681641 C-801.38918341 334.92157739 -796.93142122 329.58945756 -792.15625 324.40234375 C-789.96458105 321.96053867 -787.91890626 319.4413226 -785.875 316.875 C-781.34754877 311.27148201 -776.45649907 306.05059067 -771.49169922 300.83349609 C-770.88342285 300.1936377 -770.27514648 299.5537793 -769.6484375 298.89453125 C-769.11395996 298.33612549 -768.57948242 297.77771973 -768.02880859 297.20239258 C-766.26952433 295.29258472 -764.5772331 293.34671023 -762.88500977 291.37792969 C-758.53360704 286.39087595 -753.87517092 281.73157653 -749.19140625 277.05859375 C-748.26585434 276.13208511 -747.34030243 275.20557648 -746.38670349 274.25099182 C-744.43935145 272.30217639 -742.49023087 270.35515263 -740.53979492 268.40942383 C-738.06103605 265.93636139 -735.58679569 263.45883467 -733.1138773 260.97993374 C-730.72549855 258.58703799 -728.3332792 256.19799682 -725.94140625 253.80859375 C-725.0640834 252.92924667 -724.18676056 252.0498996 -723.28285217 251.14390564 C-718.87852727 246.75615378 -714.41827179 242.50158149 -709.69537354 238.45726013 C-707.12654217 236.24921839 -704.66614438 233.93377924 -702.1875 231.625 C-697.58474162 227.37193784 -692.84253712 223.35766218 -687.95703125 219.4296875 C-685.16995778 217.13964827 -682.45780767 214.78639829 -679.75195312 212.40209961 C-671.84224867 205.43995471 -663.6186989 199.01416911 -655.20458984 192.67675781 C-652.19783853 190.38989535 -649.23185423 188.05281136 -646.26342773 185.71655273 C-637.77706092 179.04627391 -629.11238539 172.71079601 -620.2421875 166.5625 C-617.8702392 164.90957436 -615.51234098 163.23794248 -613.15625 161.5625 C-602.78292847 154.20363066 -592.25330719 147.19906568 -581.43603516 140.51074219 C-578.93318085 138.95856114 -576.44059159 137.39084644 -573.94921875 135.8203125 C-561.18833536 127.80466405 -548.18564802 120.2928685 -535 113 C-533.61167969 112.2275293 -533.61167969 112.2275293 -532.1953125 111.43945312 C-475.0350197 79.69707764 -414.06101588 52.63203347 -351 35 C-349.68418945 34.63068359 -349.68418945 34.63068359 -348.34179688 34.25390625 C-342.86971492 32.72662958 -337.38600391 31.24626338 -331.89697266 29.78125 C-328.8679588 28.96439138 -325.84589756 28.12481573 -322.82421875 27.28125 C-308.17954357 23.21862745 -293.47425155 19.79833686 -278.58837891 16.74267578 C-274.95468828 15.99062197 -271.32673985 15.21482412 -267.69921875 14.43359375 C-251.86387359 11.04513409 -236.04049589 8.21356745 -220 6 C-218.62411622 5.80403891 -217.24830512 5.60756691 -215.87255859 5.41064453 C-144.88697043 -4.68013681 -71.42449606 -7.12701339 0 0 Z " fill="#2F3136" transform="translate(1585,576)"/>
</svg>
