<?xml version="1.0" encoding="UTF-8"?>
<svg version="1.1" xmlns="http://www.w3.org/2000/svg" width="3000" height="3000">
<path d="M0 0 C4.78297391 0.00460717 9.56569197 -0.00222384 14.34863281 -0.02050781 C116.77090594 -0.40784345 219.43363886 10.14313866 618.16662598 128.42938232 C620.14338013 129.31178156 622.12246031 130.18874571 624.10229492 131.06420898 C643.64616914 139.71652232 662.84320502 149.01758195 681.96459961 158.56567383 C683.05526733 159.10921509 684.14593506 159.65275635 685.26965332 160.21276855 C699.28509883 167.20807049 713.13143918 174.45478299 726.83810425 182.03729248 C728.87172324 183.16077813 730.90883067 184.27729896 732.94921875 185.38842773 C749.26114284 194.27256809 765.17971656 203.67085813 781.00170898 213.39086914 C784.63126988 215.60843409 788.28326158 217.78570696 791.94189453 219.95483398 C821.55674373 237.5349756 850.3199708 256.84600998 878.27124023 276.96313477 C880.31563797 278.4332754 882.36661042 279.89398312 884.41772461 281.35473633 C896.1840955 289.76333957 907.684034 298.50631138 919.15209961 307.31567383 C920.39409232 308.26644917 921.63625712 309.21699979 922.87866211 310.16723633 C925.97762098 312.53999865 929.06694458 314.92497802 932.15209961 317.31567383 C932.68786621 317.73059082 933.22363281 318.14550781 933.77563477 318.57299805 C946.64759626 328.55954168 959.21219102 338.9211337 971.61669922 349.48144531 C974.96589572 352.32876316 978.35776874 355.11566358 981.77709961 357.87817383 C986.53730014 361.75146655 991.08014745 365.82327375 995.59741211 369.97583008 C997.77907775 371.97402231 999.9822127 373.93716272 1002.21459961 375.87817383 C1006.0498933 379.21355144 1009.82880979 382.60875814 1013.60131836 386.01489258 C1015.22537298 387.47977492 1016.85263746 388.94111214 1018.48413086 390.39770508 C1028.53434628 399.38123097 1038.55506074 408.46268459 1047.92944336 418.15551758 C1049.73998266 419.9151454 1051.5745801 421.53450441 1053.49584961 423.16723633 C1059.53339261 428.41292454 1065.11799764 434.13272865 1070.76123047 439.79443359 C1072.7100683 441.74863006 1074.66419233 443.6974253 1076.61889648 445.64575195 C1082.15839303 451.18259662 1087.65185081 456.69846107 1092.72607422 462.67138672 C1095.0599506 465.36247685 1097.60315619 467.8304329 1100.15209961 470.31567383 C1103.96970086 474.08691933 1107.63314752 477.90301337 1111.11303711 481.99145508 C1114.04923984 485.3382762 1117.10530838 488.56966324 1120.15209961 491.81567383 C1124.91756966 496.90263381 1129.62796504 502.01151606 1134.15209961 507.31567383 C1135.02687233 508.33670193 1135.9018966 509.35751454 1136.77709961 510.37817383 C1138.2928865 512.14613002 1139.80816988 513.9145035 1141.32177734 515.68432617 C1144.58791874 519.50131595 1147.87380482 523.30026307 1151.1730957 527.08862305 C1156.95775624 533.73428784 1162.61426105 540.46191323 1168.15209961 547.31567383 C1169.16975522 548.56353763 1170.18802706 549.81089903 1171.20678711 551.05786133 C1177.7844089 559.11566828 1184.28626116 567.2262981 1190.68041992 575.43041992 C1192.26830281 577.46453267 1193.86243724 579.49365797 1195.45678711 581.52270508 C1203.90510452 592.29864437 1212.09215701 603.24690284 1220.15209961 614.31567383 C1220.68657715 615.0472168 1221.22105469 615.77875977 1221.77172852 616.5324707 C1243.74345398 646.62109629 1264.62252903 677.5824341 1284.15209961 709.31567383 C1284.77713379 710.33048828 1285.40216797 711.34530273 1286.04614258 712.39086914 C1308.24026353 748.51061043 1328.89694187 785.40652964 1348.07922363 823.20568848 C1349.14837982 825.30835825 1350.22222288 827.40856628 1351.29760742 829.50805664 C1361.32478166 849.09488323 1370.63114342 868.91040376 1379.42068481 889.08251953 C1381.31738486 893.43041247 1383.250235 897.75910545 1385.22241211 902.07348633 C1427.31720112 994.35630136 1456.94880629 1093.38908955 1504.33959961 1379.62817383 C1504.41859497 1380.57850494 1504.49759033 1381.52883606 1504.57897949 1382.50796509 C1505.17556024 1389.77276632 1505.68404667 1397.04151494 1506.15209961 1404.31567383 C1506.19535496 1404.97620884 1506.23861031 1405.63674385 1506.28317642 1406.31729507 C1508.1461999 1434.92941578 1508.49763755 1463.49656368 1508.46777344 1492.16357422 C1508.46316626 1496.94654813 1508.46999727 1501.72926619 1508.48828125 1506.51220703 C1508.87116471 1607.75719854 1497.97026364 1708.35443775 1375.04034424 2121.35491943 C1374.21521159 2123.17635736 1373.39511558 2125.00007465 1372.57543945 2126.82397461 C1365.15649848 2143.31569798 1357.15667851 2159.50863835 1349.08959961 2175.69067383 C1348.588396 2176.69843872 1348.08719238 2177.70620361 1347.57080078 2178.74450684 C1340.81194736 2192.31699725 1333.77913969 2205.70692081 1326.443573 2218.97650146 C1325.31495696 2221.02069957 1324.19293242 2223.06820588 1323.07617188 2225.11889648 C1314.19254962 2241.42849082 1304.79572211 2257.34523304 1295.0769043 2273.1652832 C1292.85933935 2276.7948441 1290.68206648 2280.44683579 1288.51293945 2284.10546875 C1270.93279783 2313.72031795 1251.62176346 2342.48354502 1231.50463867 2370.43481445 C1230.03449804 2372.47921219 1228.57379032 2374.53018464 1227.11303711 2376.58129883 C1218.70443387 2388.34766972 1209.96146206 2399.84760822 1201.15209961 2411.31567383 C1200.20132427 2412.55766654 1199.25077365 2413.79983134 1198.30053711 2415.04223633 C1195.92777479 2418.1411952 1193.54279542 2421.2305188 1191.15209961 2424.31567383 C1190.73718262 2424.85144043 1190.32226562 2425.38720703 1189.89477539 2425.93920898 C1179.90823175 2438.81117048 1169.54663974 2451.37576524 1158.98632812 2463.78027344 C1156.13901027 2467.12946994 1153.35210986 2470.52134296 1150.58959961 2473.94067383 C1146.71630689 2478.70087436 1142.64449969 2483.24372166 1138.49194336 2487.76098633 C1136.49375112 2489.94265197 1134.53061072 2492.14578691 1132.58959961 2494.37817383 C1129.254222 2498.21346752 1125.8590153 2501.99238401 1122.45288086 2505.76489258 C1120.98799851 2507.3889472 1119.5266613 2509.01621168 1118.07006836 2510.64770508 C1109.08654247 2520.6979205 1100.00508885 2530.71863496 1090.31225586 2540.09301758 C1088.55262804 2541.90355687 1086.93326902 2543.73815432 1085.30053711 2545.65942383 C1080.05484889 2551.69696683 1074.33504479 2557.28157186 1068.67333984 2562.92480469 C1066.71914337 2564.87364252 1064.77034814 2566.82776655 1062.82202148 2568.7824707 C1057.28517682 2574.32196724 1051.76931237 2579.81542502 1045.79638672 2584.88964844 C1043.10529659 2587.22352482 1040.63734053 2589.76673041 1038.15209961 2592.31567383 C1034.38085411 2596.13327508 1030.56476007 2599.79672174 1026.47631836 2603.27661133 C1023.12949724 2606.21281406 1019.8981102 2609.26888259 1016.65209961 2612.31567383 C1011.56513963 2617.08114387 1006.45625738 2621.79153926 1001.15209961 2626.31567383 C1000.13107151 2627.19044655 999.1102589 2628.06547082 998.08959961 2628.94067383 C996.32164342 2630.45646072 994.55326993 2631.9717441 992.78344727 2633.48535156 C988.96645749 2636.75149296 985.16751037 2640.03737903 981.37915039 2643.33666992 C974.73348559 2649.12133045 968.0058602 2654.77783527 961.15209961 2660.31567383 C959.90423581 2661.33332944 958.65687441 2662.35160128 957.40991211 2663.37036133 C949.35210515 2669.94798312 941.24147534 2676.44983538 933.03735352 2682.84399414 C931.00324077 2684.43187703 928.97411547 2686.02601146 926.94506836 2687.62036133 C916.16912906 2696.06867873 905.2208706 2704.25573123 894.15209961 2712.31567383 C893.42055664 2712.85015137 892.68901367 2713.38462891 891.93530273 2713.93530273 C861.84667715 2735.9070282 830.88533934 2756.78610324 799.15209961 2776.31567383 C798.13728516 2776.94070801 797.1224707 2777.56574219 796.0769043 2778.2097168 C759.957163 2800.40383775 723.0612438 2821.06051609 685.26208496 2840.24279785 C683.15941519 2841.31195404 681.05920716 2842.3857971 678.9597168 2843.46118164 C659.37289021 2853.48835588 639.55736968 2862.79471764 619.38525391 2871.58425903 C615.03736097 2873.48095908 610.70866798 2875.41380921 606.39428711 2877.38598633 C514.11147208 2919.48077534 415.07868389 2949.11238051 128.83959961 2996.50317383 C127.88926849 2996.58216919 126.93893738 2996.66116455 125.95980835 2996.74255371 C118.69500712 2997.33913446 111.4262585 2997.84762089 104.15209961 2998.31567383 C103.4915646 2998.35892918 102.83102959 2998.40218452 102.15047836 2998.44675064 C73.53835766 3000.30977412 44.97120976 3000.66121177 16.30419922 3000.63134766 C11.52122531 3000.62674048 6.73850725 3000.63357149 1.95556641 3000.65185547 C-99.28942511 3001.03473892 -199.88666431 2990.13383785 -601.86242676 2872.20196533 C-603.83918091 2871.3195661 -605.81826109 2870.44260195 -607.7980957 2869.56713867 C-627.34196992 2860.91482534 -646.5390058 2851.61376571 -665.66040039 2842.06567383 C-666.75106812 2841.52213257 -667.84173584 2840.97859131 -668.9654541 2840.4185791 C-682.98089961 2833.42327717 -696.82723996 2826.17656467 -710.53390503 2818.59405518 C-712.56752402 2817.47056953 -714.60463145 2816.3540487 -716.64501953 2815.24291992 C-732.95694362 2806.35877957 -748.87551734 2796.96048953 -764.69750977 2787.24047852 C-768.32707066 2785.02291357 -771.97906236 2782.8456407 -775.63769531 2780.67651367 C-805.25254451 2763.09637205 -834.01577158 2743.78533768 -861.96704102 2723.66821289 C-864.01143875 2722.19807226 -866.06241121 2720.73736454 -868.11352539 2719.27661133 C-879.87989628 2710.86800809 -891.37983479 2702.12503628 -902.84790039 2693.31567383 C-904.0898931 2692.36489849 -905.3320579 2691.41434787 -906.57446289 2690.46411133 C-909.67342176 2688.09134901 -912.76274537 2685.70636964 -915.84790039 2683.31567383 C-916.38366699 2682.90075684 -916.91943359 2682.48583984 -917.47143555 2682.05834961 C-930.34339704 2672.07180597 -942.9079918 2661.71021396 -955.3125 2651.14990234 C-958.6616965 2648.30258449 -962.05356952 2645.51568408 -965.47290039 2642.75317383 C-970.23310092 2638.87988111 -974.77594823 2634.80807391 -979.29321289 2630.65551758 C-981.47487854 2628.65732534 -983.67801348 2626.69418494 -985.91040039 2624.75317383 C-989.74569408 2621.41779622 -993.52461058 2618.02258952 -997.29711914 2614.61645508 C-998.92117376 2613.15157273 -1000.54843824 2611.69023551 -1002.17993164 2610.23364258 C-1012.23014706 2601.25011669 -1022.25086152 2592.16866306 -1031.62524414 2582.47583008 C-1033.43578344 2580.71620226 -1035.27038088 2579.09684324 -1037.19165039 2577.46411133 C-1043.22919339 2572.21842311 -1048.81379842 2566.49861901 -1054.45703125 2560.83691406 C-1056.40586909 2558.88271759 -1058.35999311 2556.93392236 -1060.31469727 2554.9855957 C-1065.85419381 2549.44875103 -1071.34765159 2543.93288659 -1076.421875 2537.95996094 C-1078.75575138 2535.26887081 -1081.29895697 2532.80091475 -1083.84790039 2530.31567383 C-1087.66550164 2526.54442833 -1091.3289483 2522.72833429 -1094.80883789 2518.63989258 C-1097.74504062 2515.29307146 -1100.80110916 2512.06168442 -1103.84790039 2508.81567383 C-1108.61337044 2503.72871385 -1113.32376583 2498.61983159 -1117.84790039 2493.31567383 C-1118.72267311 2492.29464573 -1119.59769738 2491.27383312 -1120.47290039 2490.25317383 C-1121.98868728 2488.48521763 -1123.50397066 2486.71684415 -1125.01757812 2484.94702148 C-1128.28371952 2481.13003171 -1131.5696056 2477.33108459 -1134.86889648 2473.54272461 C-1140.65355702 2466.89705981 -1146.31006183 2460.16943442 -1151.84790039 2453.31567383 C-1152.865556 2452.06781003 -1153.88382784 2450.82044862 -1154.90258789 2449.57348633 C-1161.48020968 2441.51567937 -1167.98206194 2433.40504956 -1174.3762207 2425.20092773 C-1175.96410359 2423.16681499 -1177.55823802 2421.13768968 -1179.15258789 2419.10864258 C-1187.6009053 2408.33270328 -1195.78795779 2397.38444482 -1203.84790039 2386.31567383 C-1204.6496167 2385.21835937 -1204.6496167 2385.21835937 -1205.4675293 2384.09887695 C-1227.43925476 2354.01025137 -1248.31832981 2323.04891356 -1267.84790039 2291.31567383 C-1268.47293457 2290.30085938 -1269.09796875 2289.28604492 -1269.74194336 2288.24047852 C-1291.93606431 2252.12073722 -1312.59274265 2215.22481802 -1331.77502441 2177.42565918 C-1332.8441806 2175.32298941 -1333.91802366 2173.22278138 -1334.9934082 2171.12329102 C-1345.02058244 2151.53646443 -1354.3269442 2131.7209439 -1363.1164856 2111.54882812 C-1365.01318564 2107.20093519 -1366.94603578 2102.8722422 -1368.91821289 2098.55786133 C-1411.0130019 2006.2750463 -1440.64460707 1907.24225811 -1488.03540039 1621.00317383 C-1488.11439575 1620.05284271 -1488.19339111 1619.1025116 -1488.27478027 1618.12338257 C-1488.87136102 1610.85858134 -1489.37984745 1603.58983272 -1489.84790039 1596.31567383 C-1489.89115574 1595.65513882 -1489.93441109 1594.99460381 -1489.9789772 1594.31405258 C-1491.84200068 1565.70193187 -1492.19343833 1537.13478398 -1492.16357422 1508.46777344 C-1492.15896704 1503.68479953 -1492.16579805 1498.90208147 -1492.18408203 1494.11914062 C-1492.57141767 1391.69686749 -1482.02043555 1289.03413457 -1363.73419189 890.30114746 C-1362.85179266 888.32439331 -1361.97482851 886.34531312 -1361.09936523 884.36547852 C-1352.4470519 864.8216043 -1343.14599227 845.62456842 -1333.59790039 826.50317383 C-1333.05435913 825.4125061 -1332.51081787 824.32183838 -1331.95080566 823.19812012 C-1324.95550373 809.18267461 -1317.70879123 795.33633426 -1310.12628174 781.62966919 C-1309.00279609 779.5960502 -1307.88627526 777.55894277 -1306.77514648 775.51855469 C-1297.89100613 759.2066306 -1288.49271609 743.28805688 -1278.77270508 727.46606445 C-1276.55514013 723.83650356 -1274.37786726 720.18451186 -1272.20874023 716.52587891 C-1254.62859862 686.91102971 -1235.31756424 658.14780264 -1215.20043945 630.1965332 C-1213.73029882 628.15213547 -1212.2695911 626.10116301 -1210.80883789 624.05004883 C-1202.40023465 612.28367794 -1193.65726284 600.78373943 -1184.84790039 589.31567383 C-1183.89712505 588.07368112 -1182.94657443 586.83151632 -1181.99633789 585.58911133 C-1179.62357557 582.49015246 -1177.2385962 579.40082885 -1174.84790039 576.31567383 C-1174.4329834 575.77990723 -1174.01806641 575.24414062 -1173.59057617 574.69213867 C-1163.60403254 561.82017717 -1153.24244052 549.25558241 -1142.68212891 536.85107422 C-1139.83481105 533.50187772 -1137.04791064 530.1100047 -1134.28540039 526.69067383 C-1130.41210767 521.9304733 -1126.34030047 517.38762599 -1122.18774414 512.87036133 C-1120.18955191 510.68869568 -1118.2264115 508.48556074 -1116.28540039 506.25317383 C-1112.95002278 502.41788013 -1109.55481608 498.63896364 -1106.14868164 494.86645508 C-1104.68379929 493.24240046 -1103.22246208 491.61513598 -1101.76586914 489.98364258 C-1092.98424891 480.15930677 -1084.08513095 470.40905727 -1074.67797852 461.17822266 C-1073.04611614 459.51740648 -1071.55306111 457.81793354 -1070.05883789 456.03442383 C-1064.65944486 449.82601519 -1058.76593753 444.08501419 -1052.94189453 438.27929688 C-1050.91527059 436.25803115 -1048.89404492 434.23147809 -1046.87329102 432.2043457 C-1035.56745151 420.89328144 -1035.56745151 420.89328144 -1029.47460938 415.72412109 C-1026.78796879 413.39795728 -1024.32723723 410.85856183 -1021.84790039 408.31567383 C-1018.07665489 404.49807258 -1014.26056085 400.83462592 -1010.17211914 397.35473633 C-1006.82529802 394.4185336 -1003.59391098 391.36246506 -1000.34790039 388.31567383 C-995.26094041 383.55020378 -990.15205816 378.83980839 -984.84790039 374.31567383 C-983.82687229 373.44090111 -982.80605968 372.56587684 -981.78540039 371.69067383 C-980.0174442 370.17488693 -978.24907072 368.65960356 -976.47924805 367.14599609 C-972.66225827 363.8798547 -968.86331115 360.59396862 -965.07495117 357.29467773 C-958.42928638 351.5100172 -951.70166098 345.85351239 -944.84790039 340.31567383 C-943.60003659 339.29801822 -942.35267519 338.27974637 -941.10571289 337.26098633 C-933.04790593 330.68336454 -924.93727612 324.18151228 -916.7331543 317.78735352 C-914.69904155 316.19947063 -912.66991625 314.6053362 -910.64086914 313.01098633 C-899.86492985 304.56266892 -888.91667138 296.37561643 -877.84790039 288.31567383 C-877.11635742 287.78119629 -876.38481445 287.24671875 -875.63110352 286.69604492 C-845.54247793 264.72431945 -814.58114012 243.84524441 -782.84790039 224.31567383 C-781.83308594 223.69063965 -780.81827148 223.06560547 -779.77270508 222.42163086 C-743.65296379 200.22750991 -706.75704458 179.57083157 -668.95788574 160.3885498 C-666.85521597 159.31939362 -664.75500794 158.24555056 -662.65551758 157.17016602 C-643.06869099 147.14299178 -623.25317046 137.83663002 -603.08105469 129.04708862 C-598.73316175 127.15038858 -594.40446876 125.21753844 -590.09008789 123.24536133 C-497.80727286 81.15057232 -398.77448467 51.51896714 -112.53540039 4.12817383 C-111.58506927 4.04917847 -110.63473816 3.97018311 -109.65560913 3.88879395 C-102.3908079 3.29221319 -95.12205928 2.78372677 -87.84790039 2.31567383 C-87.18736538 2.27241848 -86.52683037 2.22916313 -85.84627914 2.18459702 C-57.23415844 0.32157353 -28.66701054 -0.02986411 0 0 Z " fill="#43B581" transform="translate(1491.847900390625,-0.315673828125)"/>
</svg>
